<?xml version="1.0" encoding="utf-8"?>
<!-- Generator: Adobe Illustrator 16.0.3, SVG Export Plug-In . SVG Version: 6.00 Build 0)  -->
<!DOCTYPE svg PUBLIC "-//W3C//DTD SVG 1.1//EN" "http://www.w3.org/Graphics/SVG/1.1/DTD/svg11.dtd">
<svg version="1.1" id="Layer_1" xmlns="http://www.w3.org/2000/svg" xmlns:xlink="http://www.w3.org/1999/xlink" x="0px" y="0px"
	 width="895.055px" height="481.458px" viewBox="0 0 895.055 481.458" enable-background="new 0 0 895.055 481.458"
	 xml:space="preserve">
<g id="Layer_1_1_">
</g>
<g id="Base">
	
		<rect id="Outer_Border" x="2.551" y="2.551" fill="#FFFFFF" stroke="#000000" stroke-width="5.1024" stroke-miterlimit="10" width="889.954" height="476.356"/>
	<g id="Danger_2_">
		<rect x="449.004" y="28.551" fill="#B7202F" width="420.322" height="102.633"/>
		<g>
			<path fill="#FFFFFF" d="M572.454,57.16c3.764,1.237,6.811,3.505,9.141,6.805c1.869,2.668,3.145,5.555,3.822,8.66
				c0.68,3.105,1.021,6.065,1.021,8.878c0,7.132-1.434,13.172-4.299,18.121c-3.883,6.672-9.879,10.007-17.986,10.007h-23.125V55.997
				h23.125C567.479,56.044,570.245,56.432,572.454,57.16z M551.907,65.31v35.004h10.35c5.297,0,8.99-2.607,11.078-7.823
				c1.143-2.863,1.713-6.271,1.713-10.225c0-5.458-0.855-9.647-2.566-12.571c-1.715-2.923-5.121-4.385-10.225-4.385H551.907
				L551.907,65.31z"/>
			<path fill="#FFFFFF" d="M610.18,55.996h12.682l18.977,53.632h-12.154l-3.537-11.024h-19.752l-3.637,11.024h-11.723L610.18,55.996
				z M609.442,89.361h13.736l-6.777-21.104L609.442,89.361z"/>
			<path fill="#FFFFFF" d="M648.479,55.996h11.746l21.291,37.397V55.996h10.443v53.632h-11.203l-21.838-38.055v38.055h-10.439
				V55.996L648.479,55.996z"/>
			<path fill="#FFFFFF" d="M738.534,72.733c-0.85-3.663-2.924-6.222-6.225-7.677c-1.842-0.801-3.893-1.201-6.146-1.201
				c-4.32,0-7.867,1.628-10.645,4.885c-2.779,3.256-4.168,8.153-4.168,14.688c0,6.586,1.506,11.246,4.514,13.982
				c3.008,2.737,6.428,4.104,10.26,4.104c3.76,0,6.842-1.078,9.242-3.235c2.4-2.158,3.881-4.985,4.439-8.481h-12.408v-8.95h22.342
				v28.782h-7.424l-1.127-6.696c-2.158,2.537-4.102,4.323-5.822,5.362c-2.959,1.81-6.598,2.716-10.916,2.716
				c-7.107,0-12.93-2.461-17.465-7.383c-4.73-4.945-7.096-11.709-7.096-20.29c0-8.678,2.391-15.636,7.168-20.872
				c4.779-5.236,11.098-7.854,18.959-7.854c6.814,0,12.291,1.729,16.428,5.186c4.135,3.457,6.506,7.768,7.111,12.935L738.534,72.733
				L738.534,72.733z"/>
			<path fill="#FFFFFF" d="M800.098,65.492h-28.381v11.389h26.055v9.315h-26.055v13.791h29.691v9.643h-40.645V55.997h39.332
				L800.098,65.492L800.098,65.492z"/>
			<path fill="#FFFFFF" d="M844.512,57.378c1.977,0.85,3.648,2.099,5.021,3.748c1.133,1.358,2.033,2.862,2.695,4.511
				c0.66,1.65,0.992,3.529,0.992,5.64c0,2.546-0.643,5.052-1.928,7.514c-1.289,2.462-3.408,4.202-6.367,5.221
				c2.473,0.996,4.227,2.408,5.256,4.24c1.031,1.832,1.549,4.627,1.549,8.387v3.602c0,2.452,0.1,4.113,0.295,4.985
				c0.297,1.383,0.984,2.401,2.068,3.057v1.346h-12.371c-0.342-1.187-0.582-2.147-0.729-2.874c-0.289-1.504-0.449-3.044-0.473-4.621
				l-0.072-4.985c-0.045-3.421-0.637-5.7-1.773-6.841s-3.264-1.71-6.385-1.71h-10.945v21.03h-10.953V55.996h25.654
				C839.715,56.068,842.536,56.529,844.512,57.378z M821.348,65.31v14.41h12.061c2.396,0,4.193-0.291,5.393-0.873
				c2.121-1.019,3.182-3.032,3.182-6.041c0-3.25-1.025-5.433-3.076-6.549c-1.152-0.631-2.881-0.946-5.184-0.946L821.348,65.31
				L821.348,65.31z"/>
		</g>
		<g>
			<path fill="#FFFFFF" d="M527.901,107.91l-30.654-53.098c-0.313-0.541-0.885-0.864-1.5-0.864c-0.617,0-1.189,0.335-1.502,0.864
				L463.59,107.91c-0.313,0.54-0.313,1.198,0,1.728c0.314,0.541,0.887,0.865,1.502,0.865h61.309c0.613,0,1.188-0.334,1.502-0.865
				C528.213,109.098,528.213,108.439,527.901,107.91z"/>
			<path id="path1995_2_" fill="#B7202F" d="M499.85,100.893c0,2.26-1.832,4.092-4.094,4.092c-2.26,0-4.092-1.833-4.092-4.092
				c0-2.261,1.832-4.092,4.092-4.092C498.018,96.799,499.85,98.632,499.85,100.893L499.85,100.893z"/>
			<path id="rect1997_2_" fill="#B7202F" d="M495.756,72.158c-2.229,0-4.023,1.833-4.023,4.111l1.189,14.399
				c0.229,1.863,0.422,2.918,1.189,3.415c0.502,0.229,1.059,0.358,1.646,0.358c0.584,0,1.139-0.128,1.639-0.355
				c0.771-0.496,0.969-1.552,1.195-3.418l1.191-14.399C499.782,73.992,497.987,72.158,495.756,72.158L495.756,72.158z"/>
		</g>
	</g>
	<g id="Danger_-_ISO">
		<rect x="450.038" y="27.968" fill="#B7202F" width="419.436" height="103"/>
		<g>
			<path fill="#FFFFFF" d="M571.94,56.533c3.77,1.24,6.82,3.512,9.156,6.817c1.871,2.673,3.148,5.564,3.828,8.675
				c0.682,3.109,1.021,6.074,1.021,8.893c0,7.144-1.436,13.194-4.305,18.152c-3.891,6.684-9.896,10.023-18.02,10.023h-23.164V55.369
				h23.164C566.956,55.417,569.727,55.805,571.94,56.533z M551.358,64.698v35.063h10.367c5.309,0,9.006-2.612,11.1-7.837
				c1.143-2.868,1.715-6.281,1.715-10.243c0-5.466-0.857-9.664-2.574-12.593c-1.715-2.927-5.129-4.392-10.238-4.392L551.358,64.698
				L551.358,64.698z"/>
			<path fill="#FFFFFF" d="M609.731,55.368h12.701l19.008,53.725h-12.174l-3.545-11.043h-19.783l-3.645,11.043h-11.742
				L609.731,55.368z M608.991,88.791h13.76l-6.787-21.14L608.991,88.791z"/>
			<path fill="#FFFFFF" d="M648.094,55.368h11.77l21.324,37.461V55.368h10.463v53.725h-11.225l-21.871-38.121v38.121h-10.461V55.368
				L648.094,55.368z"/>
			<path fill="#FFFFFF" d="M738.305,72.134c-0.852-3.668-2.932-6.232-6.234-7.69c-1.848-0.802-3.9-1.203-6.162-1.203
				c-4.322,0-7.877,1.631-10.658,4.893c-2.785,3.262-4.176,8.168-4.176,14.715c0,6.597,1.51,11.264,4.521,14.005
				c3.012,2.743,6.438,4.112,10.277,4.112c3.766,0,6.852-1.081,9.258-3.242c2.404-2.162,3.887-4.993,4.447-8.496h-12.43v-8.965
				h22.379v28.831h-7.438l-1.127-6.708c-2.166,2.542-4.105,4.331-5.832,5.371c-2.967,1.813-6.609,2.72-10.936,2.72
				c-7.121,0-12.949-2.465-17.496-7.395c-4.738-4.954-7.105-11.729-7.105-20.324c0-8.693,2.395-15.663,7.18-20.909
				c4.789-5.245,11.117-7.868,18.99-7.868c6.828,0,12.314,1.732,16.455,5.195c4.145,3.462,6.52,7.782,7.125,12.957L738.305,72.134
				L738.305,72.134z"/>
			<path fill="#FFFFFF" d="M799.977,64.881h-28.432V76.29h26.098v9.331h-26.098v13.814h29.742v9.659h-40.713V55.369h39.396
				L799.977,64.881L799.977,64.881z"/>
			<path fill="#FFFFFF" d="M844.463,56.753c1.979,0.852,3.654,2.102,5.029,3.754c1.137,1.361,2.035,2.867,2.701,4.52
				c0.664,1.652,0.996,3.534,0.996,5.648c0,2.552-0.646,5.06-1.934,7.527c-1.289,2.466-3.416,4.209-6.379,5.23
				c2.48,0.998,4.234,2.412,5.266,4.247c1.033,1.835,1.553,4.636,1.553,8.402v3.607c0,2.456,0.098,4.12,0.297,4.994
				c0.297,1.386,0.984,2.405,2.072,3.062v1.348H841.67c-0.342-1.189-0.584-2.151-0.727-2.878c-0.293-1.507-0.451-3.05-0.477-4.63
				l-0.072-4.993c-0.047-3.426-0.637-5.709-1.777-6.852c-1.135-1.143-3.268-1.713-6.396-1.713h-10.963v21.067h-10.971V55.368h25.697
				C839.661,55.441,842.483,55.902,844.463,56.753z M821.262,64.698v14.434h12.08c2.398,0,4.197-0.292,5.4-0.874
				c2.123-1.022,3.186-3.039,3.186-6.051c0-3.255-1.025-5.443-3.084-6.56c-1.15-0.632-2.883-0.948-5.188-0.948L821.262,64.698
				L821.262,64.698z"/>
		</g>
		<g>
			<path id="sign_border" fill="#020202" d="M527.313,107.372l-30.707-53.19c-0.314-0.541-0.887-0.865-1.504-0.865
				c-0.615,0-1.191,0.335-1.504,0.865l-30.707,53.19c-0.313,0.54-0.313,1.199,0,1.731c0.314,0.541,0.887,0.866,1.504,0.866h61.412
				c0.617,0,1.191-0.335,1.504-0.866C527.625,108.562,527.625,107.902,527.313,107.372L527.313,107.372z"/>
			<polygon id="polygon7" fill="#F4BD18" points="467.415,106.498 495.112,58.73 522.811,106.498 			"/>
			<path id="path1995" fill="#020202" stroke="#020202" stroke-width="0.0676" stroke-linecap="square" stroke-opacity="0.4" d="
				M499.211,100.342c0,2.264-1.834,4.099-4.1,4.099c-2.264,0-4.1-1.835-4.1-4.099c0-2.264,1.836-4.099,4.1-4.099
				C497.377,96.242,499.211,98.078,499.211,100.342L499.211,100.342z"/>
			<path id="rect1997" fill="#020202" stroke="#020202" stroke-width="0.0958" stroke-linecap="square" d="M495.112,71.559
				c-2.234,0-4.031,1.837-4.031,4.118l1.191,14.424c0.229,1.866,0.424,2.922,1.191,3.419c0.504,0.23,1.063,0.359,1.648,0.359
				s1.141-0.128,1.641-0.357c0.775-0.496,0.971-1.553,1.199-3.424l1.191-14.423C499.147,73.396,497.346,71.559,495.112,71.559
				L495.112,71.559z"/>
		</g>
	</g>
	<g id="Header_Border">
		<g>
			<path d="M868.903,29.654v98.295H450.608V29.654H868.903 M874.004,24.551h-428.5v108.5h428.5V24.551L874.004,24.551z"/>
		</g>
	</g>
	<g id="Inner_Border">
		<g>
			<path d="M868.903,29.654v425.151H26.386V29.654H868.903 M874.004,24.551H21.283v435.356h852.721V24.551L874.004,24.551z"/>
		</g>
	</g>
	
		<rect id="Black_Background_2_" x="448.504" y="133.051" stroke="#000000" stroke-width="5.1024" stroke-miterlimit="10" width="422.5" height="321.856"/>
	<g>
		<g>
			<g>
				<path d="M868.903,138.154v316.651H450.608V138.154H868.903 M874.004,133.051h-428.5v326.856h428.5V133.051L874.004,133.051z"/>
			</g>
		</g>
	</g>
	<g enable-background="new    ">
		<path fill="#FFFFFF" d="M494.133,156.56v35.991h-8.279v-14.845h-11.232v14.845h-8.279V156.56h8.279v14.027h11.232V156.56H494.133z
			"/>
		<path fill="#FFFFFF" d="M508.846,155.822v7.857h-7.857v-7.857H508.846z M508.846,165.92v26.631h-7.857V165.92H508.846z"/>
		<path fill="#FFFFFF" d="M541.911,166.527c-0.827-0.176-1.521-0.264-2.084-0.264c-1.74,0-2.76,0.773-3.059,2.32
			c1.424,1.494,2.137,3.182,2.137,5.063c0,2.514-1.051,4.518-3.151,6.012s-5.128,2.241-9.083,2.241
			c-1.407,0-2.778-0.133-4.113-0.398c-0.896,0.527-1.346,1.205-1.346,2.031c0,0.915,0.379,1.521,1.135,1.821
			c0.755,0.299,2.574,0.519,5.457,0.659c4.096,0.211,6.918,0.466,8.465,0.765c1.546,0.299,2.848,1.02,3.902,2.162
			s1.582,2.566,1.582,4.271c0,2.443-1.131,4.509-3.389,6.196c-2.259,1.688-6.262,2.531-12.01,2.531
			c-5.396,0-9.035-0.585-10.916-1.756c-1.882-1.17-2.822-2.652-2.822-4.448c0-2.376,1.521-3.977,4.563-4.804
			c-2.251-1.125-3.375-2.707-3.375-4.746c0-2.549,1.775-4.535,5.326-5.959c-3.147-1.3-4.721-3.469-4.721-6.508
			c0-2.476,1.086-4.486,3.257-6.032s5.172-2.318,9.005-2.318c2.426,0,4.771,0.387,7.039,1.16c0.158-1.512,0.603-2.755,1.332-3.731
			c0.729-0.975,2.281-1.463,4.654-1.463c0.773,0,1.512,0.07,2.215,0.211V166.527z M521.37,192.367c-0.316,0-0.716,0.211-1.199,0.633
			c-0.484,0.422-0.725,0.932-0.725,1.529c0,1.195,0.764,1.942,2.293,2.241s3.322,0.448,5.379,0.448c2.689,0,4.575-0.202,5.656-0.606
			s1.621-1.055,1.621-1.951c0-0.686-0.452-1.213-1.357-1.582c-0.906-0.369-3.318-0.554-7.238-0.554l-1.582,0.026
			c-0.967,0-1.617-0.026-1.951-0.079C521.897,192.402,521.598,192.367,521.37,192.367z M526.604,169.612
			c-1.35,0-2.406,0.365-3.168,1.094c-0.762,0.73-1.143,1.692-1.143,2.888c0,2.707,1.445,4.061,4.338,4.061
			c1.4,0,2.5-0.396,3.299-1.187c0.797-0.791,1.195-1.749,1.195-2.874c0-1.055-0.377-1.981-1.13-2.782
			C529.242,170.012,528.112,169.612,526.604,169.612z"/>
		<path fill="#FFFFFF" d="M552.799,156.56v12.98c1.441-2.782,3.841-4.174,7.199-4.174c1.793,0,3.326,0.392,4.601,1.173
			c1.274,0.783,2.171,1.789,2.689,3.02s0.778,3.032,0.778,5.405v17.587h-7.857V177.53c0-1.796-0.07-3.027-0.211-3.696
			c-0.14-0.669-0.459-1.228-0.959-1.677c-0.499-0.448-1.125-0.673-1.879-0.673c-0.98,0-1.953,0.383-2.916,1.148
			s-1.445,2.397-1.445,4.897v15.021h-7.619V156.56H552.799z"/>
		<path fill="#FFFFFF" d="M609.014,165.92l-9.126,26.631h-6.111l-9.151-26.631h8.166l5.136,16.875l5.254-16.875H609.014z"/>
		<path fill="#FFFFFF" d="M622.792,165.367c4.057,0,7.221,1.327,9.496,3.981c2.273,2.654,3.41,5.977,3.41,9.967
			c0,3.938-1.181,7.221-3.542,9.848c-2.362,2.629-5.501,3.942-9.417,3.942c-3.793,0-6.826-1.301-9.101-3.902
			s-3.411-5.941-3.411-10.02c0-2.83,0.514-5.233,1.541-7.212c1.027-1.977,2.437-3.572,4.228-4.785
			C617.788,165.973,620.052,165.367,622.792,165.367z M623.002,170.508c-1.49,0-2.611,0.576-3.365,1.727
			c-0.754,1.152-1.131,3.441-1.131,6.869c0,3.146,0.359,5.405,1.078,6.776s1.84,2.057,3.365,2.057c1.332,0,2.41-0.584,3.234-1.753
			c0.822-1.169,1.234-3.397,1.234-6.685c0-3.498-0.363-5.871-1.09-7.119C625.6,171.132,624.493,170.508,623.002,170.508z"/>
		<path fill="#FFFFFF" d="M640.655,192.551V156.56h7.857v35.991H640.655z"/>
		<path fill="#FFFFFF" d="M663.833,172.038v11.259c0,1.406,0.209,2.347,0.629,2.821c0.421,0.475,1.41,0.712,2.967,0.712
			c0.719,0,1.549-0.035,2.494-0.105v5.827c-2.285,0.387-3.928,0.58-4.93,0.58c-3.27,0-5.59-0.628-6.961-1.885
			s-2.057-3.529-2.057-6.816v-12.393h-4.219v-6.117h4.666l0.633-7.857l6.777-0.527v8.385h5.721v6.117H663.833z"/>
		<path fill="#FFFFFF" d="M697.661,192.551h-7.619c-0.247-1.055-0.369-2.443-0.369-4.166c-1.334,1.898-2.664,3.16-3.988,3.783
			c-1.326,0.624-2.83,0.937-4.516,0.937c-2.492,0-4.506-0.677-6.042-2.03s-2.304-3.173-2.304-5.458c0-1.67,0.447-3.208,1.344-4.614
			c0.895-1.406,2.334-2.509,4.316-3.309c1.983-0.8,5.599-1.394,10.846-1.78v-1.529c0-2.584-1.287-3.876-3.863-3.876
			c-2.752,0-4.285,1.292-4.6,3.876l-7.252-0.686c0.475-3.023,1.908-5.168,4.299-6.434c2.39-1.266,5.098-1.898,8.121-1.898
			c1.81,0,3.516,0.211,5.115,0.633c1.599,0.422,2.848,1.055,3.744,1.898s1.502,1.736,1.818,2.677s0.475,2.579,0.475,4.917v12.076
			C697.186,189.888,697.344,191.549,697.661,192.551z M689.329,179.79c-5.484,0.545-8.227,2.206-8.227,4.983
			c0,0.932,0.289,1.736,0.867,2.413c0.579,0.677,1.402,1.015,2.471,1.015c1.385,0,2.545-0.575,3.482-1.728
			c0.938-1.15,1.406-2.57,1.406-4.258V179.79z"/>
		<path fill="#FFFFFF" d="M730.278,166.527c-0.827-0.176-1.521-0.264-2.084-0.264c-1.74,0-2.76,0.773-3.059,2.32
			c1.424,1.494,2.137,3.182,2.137,5.063c0,2.514-1.051,4.518-3.151,6.012s-5.128,2.241-9.083,2.241
			c-1.407,0-2.778-0.133-4.113-0.398c-0.896,0.527-1.346,1.205-1.346,2.031c0,0.915,0.379,1.521,1.135,1.821
			c0.755,0.299,2.574,0.519,5.457,0.659c4.096,0.211,6.918,0.466,8.465,0.765c1.546,0.299,2.848,1.02,3.902,2.162
			s1.582,2.566,1.582,4.271c0,2.443-1.131,4.509-3.389,6.196c-2.259,1.688-6.262,2.531-12.01,2.531
			c-5.396,0-9.035-0.585-10.916-1.756c-1.882-1.17-2.822-2.652-2.822-4.448c0-2.376,1.521-3.977,4.563-4.804
			c-2.251-1.125-3.375-2.707-3.375-4.746c0-2.549,1.775-4.535,5.326-5.959c-3.147-1.3-4.721-3.469-4.721-6.508
			c0-2.476,1.086-4.486,3.257-6.032s5.172-2.318,9.005-2.318c2.426,0,4.771,0.387,7.039,1.16c0.158-1.512,0.603-2.755,1.332-3.731
			c0.729-0.975,2.281-1.463,4.654-1.463c0.773,0,1.512,0.07,2.215,0.211V166.527z M709.737,192.367
			c-0.316,0-0.716,0.211-1.199,0.633c-0.484,0.422-0.725,0.932-0.725,1.529c0,1.195,0.764,1.942,2.293,2.241
			s3.322,0.448,5.379,0.448c2.689,0,4.575-0.202,5.656-0.606s1.621-1.055,1.621-1.951c0-0.686-0.452-1.213-1.357-1.582
			c-0.906-0.369-3.318-0.554-7.238-0.554l-1.582,0.026c-0.967,0-1.617-0.026-1.951-0.079
			C710.264,192.402,709.965,192.367,709.737,192.367z M714.971,169.612c-1.35,0-2.406,0.365-3.168,1.094
			c-0.762,0.73-1.143,1.692-1.143,2.888c0,2.707,1.445,4.061,4.338,4.061c1.4,0,2.5-0.396,3.299-1.187
			c0.797-0.791,1.195-1.749,1.195-2.874c0-1.055-0.377-1.981-1.13-2.782C717.609,170.012,716.479,169.612,714.971,169.612z"/>
		<path fill="#FFFFFF" d="M757.461,180.554h-17.139c-0.018,0.475-0.025,0.888-0.025,1.239c0,1.898,0.504,3.331,1.516,4.298
			c1.011,0.967,2.219,1.45,3.625,1.45c2.619,0,4.193-1.397,4.721-4.192l7.119,0.527c-1.987,6.152-6.021,9.229-12.104,9.229
			c-2.654,0-4.908-0.532-6.763-1.595c-1.854-1.063-3.384-2.615-4.588-4.654s-1.806-4.482-1.806-7.33
			c0-4.236,1.208-7.655,3.625-10.257c2.416-2.602,5.523-3.902,9.32-3.902c3.428,0,6.368,1.209,8.82,3.626
			S757.461,175.263,757.461,180.554z M740.297,175.993h9.465c-0.246-3.656-1.749-5.484-4.508-5.484
			C742.301,170.508,740.649,172.336,740.297,175.993z"/>
		<path fill="#FFFFFF" d="M770.198,192.551h-8.148v-8.147h8.148V192.551z"/>
	</g>
	<g enable-background="new    ">
		<path fill="#FFFFFF" d="M482.315,261.074l-5.3,0.332c-0.074-3.048-1.263-4.572-3.567-4.572c-2.643,0-3.963,2.347-3.963,7.04
			c0,2.711,0.359,4.548,1.078,5.514c0.719,0.965,1.723,1.447,3.012,1.447c2.092,0,3.371-1.36,3.836-4.082l4.904,0.301
			c-0.316,2.584-1.279,4.549-2.887,5.894c-1.609,1.345-3.578,2.017-5.909,2.017c-2.858,0-5.181-0.986-6.969-2.958
			c-1.788-1.973-2.682-4.699-2.682-8.18c0-3.259,0.864-5.927,2.595-8.005c1.729-2.077,4.092-3.116,7.088-3.116
			C478.74,252.705,481.661,255.495,482.315,261.074z"/>
		<path fill="#FFFFFF" d="M491.625,258.321c2.434,0,4.332,0.796,5.697,2.389c1.364,1.593,2.047,3.586,2.047,5.98
			c0,2.362-0.709,4.332-2.126,5.908c-1.417,1.577-3.3,2.365-5.649,2.365c-2.276,0-4.096-0.78-5.461-2.341
			c-1.364-1.562-2.047-3.565-2.047-6.012c0-1.698,0.309-3.141,0.925-4.327s1.462-2.144,2.536-2.871
			C488.623,258.684,489.982,258.321,491.625,258.321z M491.752,261.406c-0.895,0-1.567,0.346-2.02,1.036
			c-0.453,0.69-0.678,2.064-0.678,4.121c0,1.888,0.215,3.243,0.646,4.065c0.431,0.823,1.104,1.234,2.019,1.234
			c0.8,0,1.446-0.351,1.94-1.052s0.741-2.038,0.741-4.011c0-2.099-0.218-3.522-0.655-4.271
			C493.311,261.78,492.645,261.406,491.752,261.406z"/>
		<path fill="#FFFFFF" d="M516.233,274.631h-4.714v-8.97c0-1.087-0.042-1.83-0.126-2.231c-0.085-0.4-0.291-0.74-0.617-1.021
			c-0.327-0.279-0.738-0.419-1.234-0.419c-1.656,0-2.484,1.224-2.484,3.671v8.97h-4.714v-15.979h4.382v2.705
			c0.729-1.286,1.445-2.114,2.152-2.483c0.706-0.369,1.471-0.554,2.293-0.554c1.52,0,2.742,0.408,3.671,1.226
			s1.392,2.424,1.392,4.817V274.631z"/>
		<path fill="#FFFFFF" d="M525.442,262.323v6.756c0,0.844,0.125,1.408,0.377,1.692c0.252,0.285,0.846,0.428,1.78,0.428
			c0.431,0,0.93-0.021,1.497-0.063v3.496c-1.371,0.231-2.357,0.348-2.959,0.348c-1.961,0-3.354-0.377-4.176-1.131
			c-0.823-0.754-1.234-2.117-1.234-4.09v-7.436h-2.531v-3.67h2.8l0.38-4.715l4.066-0.316v5.031h3.432v3.67H525.442z"/>
		<path fill="#FFFFFF" d="M545.739,274.631h-4.572c-0.148-0.633-0.222-1.466-0.222-2.5c-0.8,1.14-1.599,1.896-2.394,2.271
			s-1.697,0.562-2.709,0.562c-1.494,0-2.703-0.405-3.625-1.218c-0.921-0.813-1.381-1.904-1.381-3.275
			c0-1.002,0.268-1.924,0.805-2.769c0.537-0.844,1.4-1.505,2.591-1.985c1.19-0.479,3.358-0.836,6.507-1.067v-0.918
			c0-1.55-0.772-2.325-2.318-2.325c-1.65,0-2.57,0.775-2.76,2.325l-4.35-0.411c0.284-1.813,1.144-3.101,2.578-3.86
			c1.434-0.759,3.059-1.139,4.873-1.139c1.086,0,2.109,0.126,3.068,0.38c0.96,0.253,1.709,0.633,2.247,1.139
			s0.901,1.042,1.091,1.605c0.19,0.564,0.285,1.548,0.285,2.951v7.245C545.454,273.034,545.549,274.03,545.739,274.631z
			 M540.739,266.974c-3.29,0.327-4.936,1.324-4.936,2.99c0,0.56,0.174,1.042,0.521,1.447c0.347,0.406,0.841,0.609,1.482,0.609
			c0.831,0,1.526-0.346,2.089-1.036s0.844-1.543,0.844-2.555V266.974z"/>
		<path fill="#FFFFFF" d="M563.394,268.635c-0.179,1.889-0.925,3.415-2.238,4.58c-1.313,1.166-3.009,1.748-5.087,1.748
			c-2.256,0-4.094-0.746-5.513-2.238s-2.128-3.488-2.128-5.988c0-2.499,0.725-4.527,2.176-6.083
			c1.449-1.556,3.388-2.333,5.813-2.333c1.951,0,3.567,0.585,4.849,1.756s1.99,2.637,2.128,4.398l-4.397,0.253
			c-0.148-1.92-0.981-2.88-2.5-2.88c-1.867,0-2.801,1.529-2.801,4.588c0,2.036,0.262,3.328,0.783,3.876
			c0.522,0.549,1.158,0.823,1.906,0.823c1.456,0,2.326-0.923,2.611-2.769L563.394,268.635z"/>
		<path fill="#FFFFFF" d="M571.241,262.323v6.756c0,0.844,0.126,1.408,0.379,1.692c0.252,0.285,0.845,0.428,1.779,0.428
			c0.431,0,0.93-0.021,1.496-0.063v3.496c-1.371,0.231-2.357,0.348-2.958,0.348c-1.962,0-3.354-0.377-4.177-1.131
			s-1.234-2.117-1.234-4.09v-7.436h-2.531v-3.67h2.801l0.38-4.715l4.065-0.316v5.031h3.434v3.67H571.241z"/>
		<path fill="#FFFFFF" d="M606.568,258.653l-4.829,15.979h-4.15l-2.529-10.283l-2.525,10.283h-3.936l-4.954-15.979h4.917
			l2.605,9.761l2.445-9.761h4.265l2.339,9.824l2.717-9.824H606.568z"/>
		<path fill="#FFFFFF" d="M613.497,252.593v4.715h-4.714v-4.715H613.497z M613.497,258.653v15.979h-4.714v-15.979H613.497z"/>
		<path fill="#FFFFFF" d="M617.374,274.631v-21.595h4.714v21.595H617.374z"/>
		<path fill="#FFFFFF" d="M625.963,274.631v-21.595h4.715v21.595H625.963z"/>
		<path fill="#FFFFFF" d="M656.702,268.635c-0.179,1.889-0.925,3.415-2.238,4.58c-1.313,1.166-3.008,1.748-5.086,1.748
			c-2.257,0-4.095-0.746-5.514-2.238c-1.418-1.492-2.127-3.488-2.127-5.988c0-2.499,0.725-4.527,2.175-6.083
			s3.388-2.333,5.813-2.333c1.951,0,3.568,0.585,4.85,1.756s1.99,2.637,2.127,4.398l-4.397,0.253c-0.147-1.92-0.981-2.88-2.499-2.88
			c-1.867,0-2.801,1.529-2.801,4.588c0,2.036,0.262,3.328,0.783,3.876c0.521,0.549,1.157,0.823,1.906,0.823
			c1.455,0,2.326-0.923,2.61-2.769L656.702,268.635z"/>
		<path fill="#FFFFFF" d="M673.171,274.631h-4.572c-0.147-0.633-0.222-1.466-0.222-2.5c-0.801,1.14-1.598,1.896-2.393,2.271
			s-1.698,0.562-2.709,0.562c-1.496,0-2.704-0.405-3.625-1.218c-0.922-0.813-1.383-1.904-1.383-3.275
			c0-1.002,0.27-1.924,0.807-2.769c0.536-0.844,1.4-1.505,2.59-1.985c1.189-0.479,3.359-0.836,6.508-1.067v-0.918
			c0-1.55-0.773-2.325-2.318-2.325c-1.651,0-2.571,0.775-2.76,2.325l-4.352-0.411c0.285-1.813,1.145-3.101,2.579-3.86
			c1.435-0.759,3.059-1.139,4.872-1.139c1.087,0,2.109,0.126,3.07,0.38c0.959,0.253,1.708,0.633,2.246,1.139
			c0.537,0.506,0.901,1.042,1.092,1.605c0.189,0.564,0.284,1.548,0.284,2.951v7.245C672.886,273.034,672.981,274.03,673.171,274.631
			z M668.172,266.974c-3.291,0.327-4.937,1.324-4.937,2.99c0,0.56,0.173,1.042,0.521,1.447c0.348,0.406,0.842,0.609,1.482,0.609
			c0.83,0,1.527-0.346,2.09-1.036s0.844-1.543,0.844-2.555V266.974z"/>
		<path fill="#FFFFFF" d="M690.431,258.653v15.979h-4.366v-2.721c-0.822,2.035-2.395,3.053-4.715,3.053
			c-1.202,0-2.125-0.224-2.768-0.672c-0.645-0.448-1.105-1.061-1.385-1.836c-0.279-0.774-0.42-1.896-0.42-3.361v-10.441h4.572
			v10.441c0,1.435,0.591,2.151,1.772,2.151c0.601,0,1.123-0.171,1.565-0.514c0.443-0.343,0.726-0.71,0.848-1.1
			c0.121-0.391,0.182-1.061,0.182-2.01v-8.97H690.431z"/>
		<path fill="#FFFFFF" d="M706.284,262.513l-3.434,0.917c-0.4-1.444-1.439-2.167-3.117-2.167c-1.582,0-2.373,0.48-2.373,1.442
			c0,0.381,0.146,0.685,0.436,0.911c0.289,0.228,1.047,0.42,2.27,0.576c1.825,0.241,3.176,0.52,4.051,0.836s1.568,0.849,2.08,1.598
			s0.768,1.672,0.768,2.769c0,1.646-0.625,2.984-1.875,4.019c-1.25,1.033-2.998,1.55-5.244,1.55c-4.071,0-6.502-1.576-7.293-4.73
			l3.971-0.585c0.326,1.435,1.508,2.151,3.543,2.151c0.781,0,1.44-0.14,1.979-0.42c0.537-0.28,0.807-0.658,0.807-1.134
			c0-0.74-0.596-1.179-1.787-1.314c-3.229-0.397-5.351-1.016-6.368-1.854c-1.019-0.838-1.526-2.006-1.526-3.504
			c0-1.519,0.59-2.773,1.771-3.765s2.837-1.487,4.967-1.487c1.688,0,3.038,0.332,4.051,0.996
			C704.969,259.982,705.745,261.047,706.284,262.513z"/>
		<path fill="#FFFFFF" d="M724.002,267.433h-10.283c-0.012,0.285-0.016,0.532-0.016,0.743c0,1.14,0.303,1.999,0.909,2.579
			s1.331,0.87,2.175,0.87c1.572,0,2.516-0.839,2.832-2.516l4.271,0.316c-1.191,3.691-3.612,5.537-7.262,5.537
			c-1.592,0-2.945-0.319-4.058-0.957s-2.03-1.568-2.753-2.792s-1.084-2.689-1.084-4.398c0-2.541,0.726-4.593,2.176-6.154
			c1.45-1.561,3.314-2.341,5.592-2.341c2.057,0,3.821,0.725,5.293,2.175C723.266,261.946,724.002,264.258,724.002,267.433z
			 M713.704,264.696h5.679c-0.147-2.193-1.05-3.29-2.705-3.29C714.905,261.406,713.914,262.502,713.704,264.696z"/>
		<path fill="#FFFFFF" d="M747.037,262.513l-3.433,0.917c-0.401-1.444-1.44-2.167-3.117-2.167c-1.582,0-2.373,0.48-2.373,1.442
			c0,0.381,0.145,0.685,0.435,0.911c0.29,0.228,1.047,0.42,2.271,0.576c1.824,0.241,3.175,0.52,4.051,0.836
			c0.875,0.316,1.568,0.849,2.08,1.598s0.768,1.672,0.768,2.769c0,1.646-0.625,2.984-1.875,4.019c-1.25,1.033-2.998,1.55-5.244,1.55
			c-4.072,0-6.503-1.576-7.294-4.73l3.972-0.585c0.326,1.435,1.508,2.151,3.543,2.151c0.781,0,1.439-0.14,1.978-0.42
			s0.808-0.658,0.808-1.134c0-0.74-0.596-1.179-1.787-1.314c-3.229-0.397-5.352-1.016-6.369-1.854
			c-1.018-0.838-1.526-2.006-1.526-3.504c0-1.519,0.591-2.773,1.772-3.765c1.181-0.991,2.836-1.487,4.967-1.487
			c1.688,0,3.037,0.332,4.051,0.996C745.723,259.982,746.499,261.047,747.037,262.513z"/>
		<path fill="#FFFFFF" d="M754.978,253.037v7.788c0.864-1.669,2.304-2.504,4.319-2.504c1.075,0,1.995,0.234,2.76,0.704
			c0.766,0.469,1.303,1.073,1.614,1.812c0.311,0.738,0.466,1.819,0.466,3.243v10.552h-4.714v-9.013c0-1.077-0.042-1.816-0.126-2.218
			s-0.275-0.736-0.576-1.006c-0.299-0.27-0.675-0.404-1.127-0.404c-0.588,0-1.172,0.23-1.75,0.689
			c-0.577,0.459-0.866,1.438-0.866,2.938v9.013h-4.572v-21.595H754.978z"/>
		<path fill="#FFFFFF" d="M774.651,258.321c2.434,0,4.332,0.796,5.697,2.389s2.047,3.586,2.047,5.98
			c0,2.362-0.709,4.332-2.125,5.908c-1.418,1.577-3.301,2.365-5.65,2.365c-2.275,0-4.096-0.78-5.461-2.341
			c-1.364-1.562-2.047-3.565-2.047-6.012c0-1.698,0.309-3.141,0.925-4.327s1.462-2.144,2.536-2.871
			C771.649,258.684,773.006,258.321,774.651,258.321z M774.778,261.406c-0.895,0-1.568,0.346-2.02,1.036
			c-0.453,0.69-0.678,2.064-0.678,4.121c0,1.888,0.215,3.243,0.646,4.065c0.43,0.823,1.104,1.234,2.02,1.234
			c0.799,0,1.445-0.351,1.939-1.052s0.74-2.038,0.74-4.011c0-2.099-0.217-3.522-0.654-4.271
			C776.336,261.78,775.67,261.406,774.778,261.406z"/>
		<path fill="#FFFFFF" d="M799.417,268.635c-0.18,1.889-0.924,3.415-2.238,4.58c-1.313,1.166-3.008,1.748-5.086,1.748
			c-2.258,0-4.096-0.746-5.514-2.238s-2.127-3.488-2.127-5.988c0-2.499,0.725-4.527,2.176-6.083
			c1.449-1.556,3.387-2.333,5.813-2.333c1.951,0,3.568,0.585,4.85,1.756s1.99,2.637,2.127,4.398l-4.396,0.253
			c-0.148-1.92-0.982-2.88-2.5-2.88c-1.867,0-2.801,1.529-2.801,4.588c0,2.036,0.262,3.328,0.783,3.876
			c0.521,0.549,1.158,0.823,1.906,0.823c1.455,0,2.326-0.923,2.611-2.769L799.417,268.635z"/>
		<path fill="#FFFFFF" d="M812.727,264.073l5.201,10.559h-5.203l-3.336-7.238l-2.773,3.188v4.051h-4.445v-21.595h4.445v12.941
			l0.695-0.87c0.295-0.401,0.543-0.723,0.742-0.966l4.662-5.489h4.596L812.727,264.073z"/>
	</g>
	<g enable-background="new    ">
		<path fill="#FFFFFF" d="M469.389,291.917v7.625c0.844-1.561,2.162-2.341,3.955-2.341c1.836,0,3.285,0.741,4.352,2.223
			c1.064,1.481,1.598,3.515,1.598,6.099c0,2.489-0.549,4.498-1.645,6.027s-2.677,2.294-4.742,2.294c-1.075,0-1.95-0.185-2.625-0.554
			c-0.674-0.369-1.354-1.112-2.039-2.23c-0.297,0.306-0.648,1.123-1.052,2.452h-2.516v-21.595H469.389z M469.389,307.184
			c0,1.118,0.235,1.962,0.705,2.531c0.469,0.569,1.03,0.854,1.685,0.854c0.78,0,1.424-0.346,1.931-1.036
			c0.506-0.691,0.759-2.033,0.759-4.026c0-2.268-0.261-3.691-0.783-4.271s-1.115-0.87-1.78-0.87c-0.77,0-1.381,0.327-1.834,0.98
			c-0.454,0.654-0.682,1.582-0.682,2.784V307.184z"/>
		<path fill="#FFFFFF" d="M495.967,297.534v15.979h-4.365v-2.721c-0.823,2.035-2.395,3.053-4.715,3.053
			c-1.203,0-2.125-0.224-2.769-0.672s-1.104-1.061-1.384-1.836c-0.28-0.774-0.42-1.896-0.42-3.361v-10.441h4.572v10.441
			c0,1.435,0.59,2.151,1.771,2.151c0.602,0,1.123-0.171,1.566-0.514s0.725-0.71,0.847-1.1c0.121-0.391,0.182-1.061,0.182-2.01v-8.97
			H495.967z"/>
		<path fill="#FFFFFF" d="M504.432,313.512h-4.572v-15.979h4.318v2.975c0.665-2.215,1.814-3.322,3.449-3.322
			c0.232,0,0.518,0.016,0.854,0.047v4.651c-0.96,0-1.706,0.147-2.238,0.443c-0.532,0.295-0.968,0.825-1.306,1.59
			s-0.506,1.795-0.506,3.093V313.512z"/>
		<path fill="#FFFFFF" d="M524.999,313.512h-4.715v-8.97c0-1.087-0.042-1.83-0.127-2.231c-0.084-0.4-0.289-0.74-0.617-1.021
			c-0.326-0.279-0.738-0.419-1.233-0.419c-1.655,0-2.483,1.224-2.483,3.671v8.97h-4.715v-15.979h4.383v2.705
			c0.727-1.286,1.444-2.114,2.15-2.483c0.707-0.369,1.473-0.554,2.295-0.554c1.519,0,2.742,0.408,3.67,1.226
			s1.393,2.424,1.393,4.817V313.512z"/>
		<path fill="#FFFFFF" d="M540.85,301.394l-3.433,0.917c-0.401-1.444-1.44-2.167-3.116-2.167c-1.582,0-2.373,0.48-2.373,1.442
			c0,0.381,0.145,0.685,0.434,0.911c0.291,0.228,1.047,0.42,2.271,0.576c1.824,0.241,3.174,0.52,4.05,0.836
			c0.875,0.316,1.568,0.849,2.08,1.598s0.768,1.672,0.768,2.769c0,1.646-0.625,2.984-1.875,4.019
			c-1.249,1.033-2.997,1.55-5.244,1.55c-4.071,0-6.503-1.576-7.294-4.73l3.972-0.585c0.327,1.435,1.508,2.151,3.544,2.151
			c0.78,0,1.439-0.14,1.977-0.42c0.539-0.28,0.808-0.658,0.808-1.134c0.001-0.74-0.595-1.179-1.787-1.314
			c-3.228-0.397-5.351-1.016-6.368-1.854c-1.018-0.838-1.527-2.006-1.527-3.504c0-1.519,0.591-2.773,1.772-3.765
			c1.181-0.991,2.837-1.487,4.968-1.487c1.688,0,3.037,0.332,4.05,0.996C539.538,298.863,540.313,299.928,540.85,301.394z"/>
		<path fill="#FFFFFF" d="M558.941,297.202c2.434,0,4.333,0.796,5.697,2.389s2.046,3.586,2.046,5.98
			c0,2.362-0.708,4.332-2.125,5.908c-1.417,1.577-3.301,2.365-5.65,2.365c-2.275,0-4.096-0.78-5.46-2.341
			c-1.364-1.562-2.046-3.565-2.046-6.012c0-1.698,0.308-3.141,0.924-4.327s1.462-2.144,2.537-2.871
			C555.938,297.565,557.297,297.202,558.941,297.202z M559.067,300.287c-0.894,0-1.566,0.346-2.019,1.036s-0.679,2.064-0.679,4.121
			c0,1.888,0.216,3.243,0.646,4.065c0.432,0.823,1.104,1.234,2.02,1.234c0.799,0,1.445-0.351,1.94-1.052
			c0.494-0.701,0.741-2.038,0.741-4.011c0-2.099-0.219-3.522-0.654-4.271C560.625,300.661,559.961,300.287,559.067,300.287z"/>
		<path fill="#FFFFFF" d="M574.231,313.512h-4.572v-15.979h4.318v2.975c0.665-2.215,1.814-3.322,3.449-3.322
			c0.232,0,0.518,0.016,0.854,0.047v4.651c-0.96,0-1.706,0.147-2.238,0.443c-0.532,0.295-0.968,0.825-1.306,1.59
			s-0.506,1.795-0.506,3.093V313.512z"/>
		<path fill="#FFFFFF" d="M602.597,291.917v21.595h-4.351v-2.5c-1.078,1.889-2.546,2.832-4.405,2.832
			c-1.765,0-3.155-0.72-4.175-2.159s-1.529-3.436-1.529-5.988c0-2.657,0.51-4.738,1.529-6.241s2.496-2.254,4.429-2.254
			c1.7,0,3.011,0.67,3.93,2.009v-7.293H602.597z M598.025,304.226c0-2.511-0.762-3.766-2.285-3.766
			c-1.819,0-2.729,1.771-2.729,5.315c0,3.154,0.852,4.73,2.555,4.73c0.656,0,1.23-0.285,1.723-0.854
			c0.491-0.569,0.737-1.382,0.737-2.437V304.226z"/>
		<path fill="#FFFFFF" d="M620.838,306.314h-10.283c-0.012,0.285-0.016,0.532-0.016,0.743c0,1.14,0.303,1.999,0.909,2.579
			s1.331,0.87,2.175,0.87c1.572,0,2.516-0.839,2.832-2.516l4.271,0.316c-1.191,3.691-3.612,5.537-7.262,5.537
			c-1.592,0-2.945-0.319-4.058-0.957s-2.03-1.568-2.753-2.792s-1.084-2.689-1.084-4.398c0-2.541,0.726-4.593,2.176-6.154
			c1.45-1.561,3.314-2.341,5.592-2.341c2.057,0,3.821,0.725,5.293,2.175C620.102,300.827,620.838,303.139,620.838,306.314z
			 M610.54,303.577h5.679c-0.147-2.193-1.05-3.29-2.705-3.29C611.741,300.287,610.75,301.383,610.54,303.577z"/>
		<path fill="#FFFFFF" d="M637.75,313.512h-4.572c-0.148-0.633-0.223-1.466-0.223-2.5c-0.8,1.14-1.598,1.896-2.393,2.271
			s-1.697,0.562-2.709,0.562c-1.495,0-2.703-0.405-3.625-1.218s-1.382-1.904-1.382-3.275c0-1.002,0.269-1.924,0.806-2.769
			c0.537-0.844,1.4-1.505,2.59-1.985c1.19-0.479,3.359-0.836,6.508-1.067v-0.918c0-1.55-0.773-2.325-2.318-2.325
			c-1.65,0-2.57,0.775-2.76,2.325l-4.351-0.411c0.284-1.813,1.144-3.101,2.579-3.86c1.434-0.759,3.059-1.139,4.872-1.139
			c1.087,0,2.109,0.126,3.069,0.38c0.959,0.253,1.709,0.633,2.246,1.139c0.538,0.506,0.902,1.042,1.092,1.605
			c0.189,0.564,0.285,1.548,0.285,2.951v7.245C637.465,311.915,637.56,312.911,637.75,313.512z M632.75,305.855
			c-3.291,0.327-4.936,1.324-4.936,2.99c0,0.56,0.173,1.042,0.52,1.447c0.348,0.406,0.842,0.609,1.482,0.609
			c0.831,0,1.527-0.346,2.09-1.036s0.844-1.543,0.844-2.555V305.855z"/>
		<path fill="#FFFFFF" d="M646.672,301.204v6.756c0,0.844,0.125,1.408,0.378,1.692c0.252,0.285,0.845,0.428,1.78,0.428
			c0.43,0,0.93-0.021,1.496-0.063v3.496c-1.371,0.231-2.357,0.348-2.959,0.348c-1.961,0-3.354-0.377-4.176-1.131
			s-1.234-2.117-1.234-4.09v-7.436h-2.531v-3.67h2.801l0.379-4.715l4.066-0.316v5.031h3.433v3.67H646.672z"/>
		<path fill="#FFFFFF" d="M657.319,291.917v7.788c0.865-1.669,2.305-2.504,4.319-2.504c1.075,0,1.995,0.234,2.761,0.704
			c0.765,0.469,1.303,1.073,1.613,1.812s0.467,1.819,0.467,3.243v10.552h-4.715V304.5c0-1.077-0.041-1.816-0.125-2.218
			s-0.276-0.736-0.576-1.006c-0.299-0.27-0.676-0.404-1.127-0.404c-0.588,0-1.172,0.23-1.75,0.689s-0.867,1.438-0.867,2.938v9.013
			h-4.572v-21.595H657.319z"/>
		<path fill="#FFFFFF" d="M675.038,313.512h-4.888v-4.889h4.888V313.512z"/>
	</g>
	<g enable-background="new    ">
		<path fill="#FFFFFF" d="M464.897,348.078h6.591c2.687,0,4.689,0.372,6.007,1.115c1.316,0.743,2.497,1.92,3.54,3.528
			c1.044,1.608,1.565,3.641,1.565,6.099c0,3.09-0.912,5.671-2.734,7.744c-1.823,2.072-4.336,3.108-7.54,3.108h-7.429V348.078z
			 M469.864,352.048v13.559h2.084c1.842,0,3.211-0.688,4.105-2.065c0.895-1.376,1.342-2.992,1.342-4.849
			c0-1.308-0.256-2.518-0.766-3.631c-0.511-1.112-1.145-1.893-1.902-2.341s-1.668-0.673-2.731-0.673H469.864z"/>
		<path fill="#FFFFFF" d="M490.399,347.634v4.715h-4.715v-4.715H490.399z M490.399,353.694v15.979h-4.715v-15.979H490.399z"/>
		<path fill="#FFFFFF" d="M506.235,357.554l-3.433,0.917c-0.401-1.444-1.44-2.167-3.116-2.167c-1.582,0-2.373,0.48-2.373,1.442
			c0,0.381,0.145,0.685,0.434,0.911c0.291,0.228,1.047,0.42,2.271,0.576c1.824,0.241,3.174,0.52,4.05,0.836
			c0.875,0.316,1.568,0.849,2.08,1.598s0.768,1.672,0.768,2.769c0,1.646-0.625,2.984-1.875,4.019
			c-1.249,1.033-2.997,1.55-5.244,1.55c-4.071,0-6.503-1.576-7.294-4.73l3.972-0.585c0.327,1.435,1.508,2.151,3.544,2.151
			c0.78,0,1.439-0.14,1.977-0.42c0.539-0.28,0.808-0.658,0.808-1.134c0.001-0.74-0.595-1.179-1.787-1.314
			c-3.228-0.397-5.351-1.016-6.368-1.854c-1.018-0.838-1.527-2.006-1.527-3.504c0-1.519,0.591-2.773,1.772-3.765
			c1.181-0.991,2.837-1.487,4.968-1.487c1.688,0,3.037,0.332,4.05,0.996C504.922,355.023,505.698,356.088,506.235,357.554z"/>
		<path fill="#FFFFFF" d="M523.653,363.676c-0.179,1.889-0.925,3.415-2.238,4.58c-1.313,1.166-3.008,1.748-5.086,1.748
			c-2.257,0-4.095-0.746-5.514-2.238c-1.418-1.492-2.127-3.488-2.127-5.988c0-2.499,0.725-4.527,2.175-6.083
			s3.388-2.333,5.813-2.333c1.951,0,3.568,0.585,4.85,1.756s1.99,2.637,2.127,4.398l-4.397,0.253c-0.147-1.92-0.981-2.88-2.499-2.88
			c-1.867,0-2.801,1.529-2.801,4.588c0,2.036,0.262,3.328,0.783,3.876c0.521,0.549,1.157,0.823,1.906,0.823
			c1.455,0,2.326-0.923,2.61-2.769L523.653,363.676z"/>
		<path fill="#FFFFFF" d="M532.805,353.362c2.434,0,4.333,0.796,5.697,2.389c1.365,1.593,2.047,3.586,2.047,5.98
			c0,2.362-0.709,4.332-2.125,5.908c-1.418,1.577-3.301,2.365-5.65,2.365c-2.275,0-4.096-0.78-5.461-2.341
			c-1.363-1.562-2.046-3.565-2.046-6.012c0-1.698,0.308-3.141,0.925-4.327c0.615-1.187,1.461-2.144,2.536-2.871
			C529.803,353.725,531.163,353.362,532.805,353.362z M532.932,356.447c-0.895,0-1.566,0.346-2.02,1.036
			c-0.452,0.69-0.678,2.064-0.678,4.121c0,1.888,0.215,3.243,0.646,4.065c0.432,0.823,1.104,1.234,2.02,1.234
			c0.799,0,1.445-0.351,1.939-1.052s0.742-2.038,0.742-4.011c0-2.099-0.219-3.522-0.655-4.271S533.826,356.447,532.932,356.447z"/>
		<path fill="#FFFFFF" d="M557.415,369.672H552.7v-8.97c0-1.087-0.042-1.83-0.127-2.231c-0.084-0.4-0.289-0.74-0.617-1.021
			c-0.326-0.279-0.738-0.419-1.233-0.419c-1.655,0-2.483,1.224-2.483,3.671v8.97h-4.715v-15.979h4.383v2.705
			c0.727-1.286,1.444-2.114,2.15-2.483c0.707-0.369,1.473-0.554,2.295-0.554c1.519,0,2.742,0.408,3.67,1.226
			s1.393,2.424,1.393,4.817V369.672z"/>
		<path fill="#FFFFFF" d="M575.196,369.672h-4.715v-8.97c0-1.087-0.041-1.83-0.126-2.231c-0.085-0.4-0.29-0.74-0.617-1.021
			c-0.327-0.279-0.738-0.419-1.233-0.419c-1.656,0-2.484,1.224-2.484,3.671v8.97h-4.715v-15.979h4.383v2.705
			c0.728-1.286,1.445-2.114,2.151-2.483s1.472-0.554,2.294-0.554c1.52,0,2.742,0.408,3.67,1.226
			c0.929,0.817,1.393,2.424,1.393,4.817V369.672z"/>
		<path fill="#FFFFFF" d="M593.437,362.474h-10.283c-0.011,0.285-0.016,0.532-0.016,0.743c0,1.14,0.303,1.999,0.909,2.579
			s1.332,0.87,2.176,0.87c1.571,0,2.516-0.839,2.832-2.516l4.271,0.316c-1.192,3.691-3.613,5.537-7.262,5.537
			c-1.593,0-2.945-0.319-4.059-0.957c-1.112-0.638-2.029-1.568-2.752-2.792s-1.084-2.689-1.084-4.398
			c0-2.541,0.725-4.593,2.176-6.154c1.449-1.561,3.314-2.341,5.592-2.341c2.057,0,3.82,0.725,5.292,2.175
			S593.437,359.299,593.437,362.474z M583.138,359.737h5.679c-0.147-2.193-1.049-3.29-2.705-3.29
			C584.34,356.447,583.348,357.543,583.138,359.737z"/>
		<path fill="#FFFFFF" d="M610.459,363.676c-0.18,1.889-0.926,3.415-2.238,4.58c-1.313,1.166-3.009,1.748-5.086,1.748
			c-2.258,0-4.096-0.746-5.514-2.238c-1.419-1.492-2.128-3.488-2.128-5.988c0-2.499,0.726-4.527,2.175-6.083
			c1.451-1.556,3.389-2.333,5.814-2.333c1.951,0,3.567,0.585,4.85,1.756c1.281,1.171,1.99,2.637,2.127,4.398l-4.398,0.253
			c-0.147-1.92-0.98-2.88-2.499-2.88c-1.866,0-2.8,1.529-2.8,4.588c0,2.036,0.261,3.328,0.783,3.876
			c0.521,0.549,1.156,0.823,1.906,0.823c1.455,0,2.325-0.923,2.609-2.769L610.459,363.676z"/>
		<path fill="#FFFFFF" d="M618.307,357.364v6.756c0,0.844,0.125,1.408,0.377,1.692c0.252,0.285,0.846,0.428,1.78,0.428
			c0.431,0,0.93-0.021,1.497-0.063v3.496c-1.371,0.231-2.357,0.348-2.959,0.348c-1.961,0-3.354-0.377-4.176-1.131
			c-0.823-0.754-1.234-2.117-1.234-4.09v-7.436h-2.531v-3.67h2.8l0.38-4.715l4.066-0.316v5.031h3.432v3.67H618.307z"/>
		<path fill="#FFFFFF" d="M646.831,362.474h-10.283c-0.011,0.285-0.016,0.532-0.016,0.743c0,1.14,0.303,1.999,0.91,2.579
			c0.605,0.58,1.33,0.87,2.175,0.87c1.571,0,2.515-0.839,2.831-2.516l4.271,0.316c-1.191,3.691-3.611,5.537-7.261,5.537
			c-1.593,0-2.945-0.319-4.058-0.957c-1.113-0.638-2.031-1.568-2.754-2.792c-0.722-1.224-1.083-2.689-1.083-4.398
			c0-2.541,0.726-4.593,2.175-6.154c1.451-1.561,3.314-2.341,5.593-2.341c2.057,0,3.821,0.725,5.292,2.175
			S646.831,359.299,646.831,362.474z M636.532,359.737h5.68c-0.148-2.193-1.05-3.29-2.705-3.29
			C637.734,356.447,636.743,357.543,636.532,359.737z"/>
		<path fill="#FFFFFF" d="M649.805,369.672v-21.595h4.714v21.595H649.805z"/>
		<path fill="#FFFFFF" d="M672.745,362.474h-10.283c-0.012,0.285-0.016,0.532-0.016,0.743c0,1.14,0.303,1.999,0.909,2.579
			s1.331,0.87,2.175,0.87c1.572,0,2.516-0.839,2.832-2.516l4.271,0.316c-1.191,3.691-3.612,5.537-7.262,5.537
			c-1.592,0-2.945-0.319-4.058-0.957s-2.03-1.568-2.753-2.792s-1.084-2.689-1.084-4.398c0-2.541,0.726-4.593,2.176-6.154
			c1.45-1.561,3.314-2.341,5.592-2.341c2.057,0,3.821,0.725,5.293,2.175C672.008,356.987,672.745,359.299,672.745,362.474z
			 M662.446,359.737h5.679c-0.147-2.193-1.05-3.29-2.705-3.29C663.647,356.447,662.656,357.543,662.446,359.737z"/>
		<path fill="#FFFFFF" d="M689.766,363.676c-0.179,1.889-0.925,3.415-2.238,4.58c-1.313,1.166-3.008,1.748-5.086,1.748
			c-2.257,0-4.095-0.746-5.514-2.238c-1.418-1.492-2.127-3.488-2.127-5.988c0-2.499,0.725-4.527,2.175-6.083
			s3.388-2.333,5.813-2.333c1.951,0,3.568,0.585,4.85,1.756s1.99,2.637,2.127,4.398l-4.397,0.253c-0.147-1.92-0.981-2.88-2.499-2.88
			c-1.867,0-2.801,1.529-2.801,4.588c0,2.036,0.262,3.328,0.783,3.876c0.521,0.549,1.157,0.823,1.906,0.823
			c1.455,0,2.326-0.923,2.61-2.769L689.766,363.676z"/>
		<path fill="#FFFFFF" d="M697.614,357.364v6.756c0,0.844,0.125,1.408,0.378,1.692c0.252,0.285,0.845,0.428,1.78,0.428
			c0.43,0,0.93-0.021,1.496-0.063v3.496c-1.371,0.231-2.357,0.348-2.959,0.348c-1.961,0-3.354-0.377-4.176-1.131
			s-1.234-2.117-1.234-4.09v-7.436h-2.531v-3.67h2.801l0.379-4.715l4.066-0.316v5.031h3.433v3.67H697.614z"/>
		<path fill="#FFFFFF" d="M708.26,369.672h-4.572v-15.979h4.319v2.975c0.665-2.215,1.813-3.322,3.449-3.322
			c0.231,0,0.517,0.016,0.854,0.047v4.651c-0.961,0-1.707,0.147-2.238,0.443c-0.533,0.295-0.969,0.825-1.306,1.59
			c-0.338,0.765-0.507,1.795-0.507,3.093V369.672z"/>
		<path fill="#FFFFFF" d="M719.651,347.634v4.715h-4.714v-4.715H719.651z M719.651,353.694v15.979h-4.714v-15.979H719.651z"/>
		<path fill="#FFFFFF" d="M737.576,363.676c-0.179,1.889-0.925,3.415-2.238,4.58c-1.313,1.166-3.009,1.748-5.087,1.748
			c-2.256,0-4.094-0.746-5.513-2.238s-2.128-3.488-2.128-5.988c0-2.499,0.725-4.527,2.176-6.083
			c1.449-1.556,3.388-2.333,5.813-2.333c1.951,0,3.567,0.585,4.849,1.756s1.99,2.637,2.128,4.398l-4.397,0.253
			c-0.148-1.92-0.981-2.88-2.5-2.88c-1.867,0-2.801,1.529-2.801,4.588c0,2.036,0.262,3.328,0.783,3.876
			c0.522,0.549,1.158,0.823,1.906,0.823c1.456,0,2.326-0.923,2.611-2.769L737.576,363.676z"/>
		<path fill="#FFFFFF" d="M754.045,369.672h-4.572c-0.148-0.633-0.223-1.466-0.223-2.5c-0.8,1.14-1.598,1.896-2.393,2.271
			s-1.697,0.562-2.709,0.562c-1.495,0-2.703-0.405-3.625-1.218s-1.382-1.904-1.382-3.275c0-1.002,0.269-1.924,0.806-2.769
			c0.537-0.844,1.4-1.505,2.59-1.985c1.19-0.479,3.359-0.836,6.508-1.067v-0.918c0-1.55-0.773-2.325-2.318-2.325
			c-1.65,0-2.57,0.775-2.76,2.325l-4.351-0.411c0.284-1.813,1.144-3.101,2.579-3.86c1.434-0.759,3.059-1.139,4.872-1.139
			c1.087,0,2.109,0.126,3.069,0.38c0.959,0.253,1.709,0.633,2.246,1.139c0.538,0.506,0.902,1.042,1.092,1.605
			c0.189,0.564,0.285,1.548,0.285,2.951v7.245C753.76,368.075,753.855,369.071,754.045,369.672z M749.045,362.015
			c-3.291,0.327-4.936,1.324-4.936,2.99c0,0.56,0.173,1.042,0.52,1.447c0.348,0.406,0.842,0.609,1.482,0.609
			c0.831,0,1.527-0.346,2.09-1.036s0.844-1.543,0.844-2.555V362.015z"/>
		<path fill="#FFFFFF" d="M757.652,369.672v-21.595h4.714v21.595H757.652z"/>
	</g>
	<g enable-background="new    ">
		<path fill="#FFFFFF" d="M476.635,396.433l-3.433,0.917c-0.401-1.444-1.44-2.167-3.116-2.167c-1.582,0-2.373,0.48-2.373,1.442
			c0,0.381,0.145,0.685,0.434,0.911c0.291,0.228,1.047,0.42,2.271,0.576c1.824,0.241,3.174,0.52,4.05,0.836
			c0.875,0.316,1.568,0.849,2.08,1.598s0.768,1.672,0.768,2.769c0,1.646-0.625,2.984-1.875,4.019
			c-1.249,1.033-2.997,1.55-5.244,1.55c-4.071,0-6.503-1.576-7.294-4.73l3.972-0.585c0.327,1.435,1.508,2.151,3.544,2.151
			c0.78,0,1.439-0.14,1.977-0.42c0.539-0.28,0.808-0.658,0.808-1.134c0.001-0.74-0.595-1.179-1.787-1.314
			c-3.228-0.397-5.351-1.016-6.368-1.854c-1.018-0.838-1.527-2.006-1.527-3.504c0-1.519,0.591-2.773,1.772-3.765
			c1.181-0.991,2.837-1.487,4.968-1.487c1.688,0,3.037,0.332,4.05,0.996C475.323,393.902,476.098,394.967,476.635,396.433z"/>
		<path fill="#FFFFFF" d="M493.659,392.573v15.979h-4.367v-2.721c-0.822,2.035-2.395,3.053-4.714,3.053
			c-1.202,0-2.126-0.224-2.769-0.672c-0.644-0.448-1.105-1.061-1.385-1.836c-0.279-0.774-0.419-1.896-0.419-3.361v-10.441h4.572
			v10.441c0,1.435,0.591,2.151,1.772,2.151c0.601,0,1.123-0.171,1.565-0.514s0.726-0.71,0.847-1.1
			c0.121-0.391,0.182-1.061,0.182-2.01v-8.97H493.659z"/>
		<path fill="#FFFFFF" d="M497.549,413.946v-21.373h4.336v2.342c0.801-1.782,2.203-2.674,4.207-2.674c1.73,0,3.146,0.693,4.248,2.08
			s1.653,3.404,1.653,6.052c0,2.815-0.556,4.938-1.669,6.367c-1.113,1.43-2.561,2.144-4.343,2.144c-1.804,0-3.091-0.701-3.86-2.104
			v7.166H497.549z M502.122,401.559c0,1.128,0.068,1.908,0.206,2.341c0.137,0.433,0.427,0.82,0.87,1.163s0.923,0.514,1.439,0.514
			c0.644,0,1.219-0.329,1.725-0.988s0.76-2.112,0.76-4.358c0-3.153-0.834-4.73-2.5-4.73c-0.633,0-1.208,0.279-1.725,0.839
			c-0.517,0.559-0.775,1.508-0.775,2.848V401.559z"/>
		<path fill="#FFFFFF" d="M515.032,413.946v-21.373h4.334v2.342c0.802-1.782,2.205-2.674,4.209-2.674
			c1.729,0,3.145,0.693,4.248,2.08c1.102,1.387,1.652,3.404,1.652,6.052c0,2.815-0.557,4.938-1.669,6.367
			c-1.112,1.43-2.561,2.144-4.343,2.144c-1.803,0-3.09-0.701-3.859-2.104v7.166H515.032z M519.604,401.559
			c0,1.128,0.068,1.908,0.205,2.341s0.428,0.82,0.87,1.163s0.923,0.514,1.439,0.514c0.644,0,1.218-0.329,1.725-0.988
			s0.759-2.112,0.759-4.358c0-3.153-0.832-4.73-2.499-4.73c-0.633,0-1.208,0.279-1.725,0.839c-0.517,0.559-0.774,1.508-0.774,2.848
			V401.559z"/>
		<path fill="#FFFFFF" d="M532.512,408.551v-21.595h4.715v21.595H532.512z"/>
		<path fill="#FFFFFF" d="M553.491,392.573l-5.011,15.328c-0.56,1.709-1.038,2.945-1.434,3.71c-0.396,0.766-0.966,1.377-1.71,1.837
			c-0.743,0.458-1.779,0.688-3.109,0.688c-0.664,0-1.419-0.063-2.264-0.19v-3.623c0.836,0.148,1.607,0.222,2.316,0.222
			c0.931,0,1.555-0.174,1.871-0.522c0.318-0.349,0.556-0.84,0.715-1.474l-5.819-15.976h4.983l3.077,9.508l2.959-9.508H553.491z"/>
		<path fill="#FFFFFF" d="M568.346,386.957v7.625c0.844-1.561,2.162-2.341,3.955-2.341c1.835,0,3.285,0.741,4.35,2.223
			c1.066,1.481,1.599,3.515,1.599,6.099c0,2.489-0.548,4.498-1.644,6.027c-1.097,1.529-2.678,2.294-4.744,2.294
			c-1.074,0-1.949-0.185-2.623-0.554c-0.676-0.369-1.355-1.112-2.04-2.23c-0.298,0.306-0.647,1.123-1.052,2.452h-2.516v-21.595
			H568.346z M568.346,402.223c0,1.118,0.234,1.962,0.703,2.531c0.47,0.569,1.031,0.854,1.686,0.854c0.78,0,1.424-0.346,1.93-1.036
			c0.506-0.691,0.76-2.033,0.76-4.026c0-2.268-0.262-3.691-0.783-4.271s-1.115-0.87-1.779-0.87c-0.771,0-1.383,0.327-1.836,0.98
			c-0.453,0.654-0.68,1.582-0.68,2.784V402.223z"/>
		<path fill="#FFFFFF" d="M595.62,401.353h-10.283c-0.01,0.285-0.016,0.532-0.016,0.743c0,1.14,0.303,1.999,0.91,2.579
			c0.605,0.58,1.331,0.87,2.176,0.87c1.57,0,2.515-0.839,2.831-2.516l4.271,0.316c-1.192,3.691-3.612,5.537-7.261,5.537
			c-1.594,0-2.945-0.319-4.059-0.957s-2.03-1.568-2.753-2.792c-0.722-1.224-1.083-2.689-1.083-4.398
			c0-2.541,0.725-4.593,2.175-6.154c1.45-1.561,3.314-2.341,5.593-2.341c2.057,0,3.82,0.725,5.291,2.175
			C594.884,395.866,595.62,398.178,595.62,401.353z M585.321,398.616H591c-0.148-2.193-1.049-3.29-2.705-3.29
			C586.524,395.326,585.532,396.422,585.321,398.616z"/>
		<path fill="#FFFFFF" d="M603.514,396.243v12.309h-4.588v-12.309h-1.851v-3.67h1.851c0.021-1.646,0.141-2.845,0.356-3.6
			c0.216-0.754,0.772-1.424,1.669-2.009s2.114-0.878,3.654-0.878c0.633,0,1.361,0.058,2.184,0.174v3.639
			c-0.676-0.053-1.234-0.079-1.678-0.079c-0.643,0-1.07,0.169-1.281,0.507c-0.211,0.337-0.316,0.886-0.316,1.645v0.602h2.896v3.67
			H603.514z"/>
		<path fill="#FFFFFF" d="M615.356,392.241c2.434,0,4.332,0.796,5.697,2.389c1.364,1.593,2.047,3.586,2.047,5.98
			c0,2.362-0.709,4.332-2.126,5.908c-1.417,1.577-3.3,2.365-5.649,2.365c-2.276,0-4.096-0.78-5.461-2.341
			c-1.364-1.562-2.047-3.565-2.047-6.012c0-1.698,0.309-3.141,0.925-4.327s1.462-2.144,2.536-2.871
			C612.353,392.604,613.712,392.241,615.356,392.241z M615.483,395.326c-0.895,0-1.567,0.346-2.02,1.036
			c-0.453,0.69-0.678,2.064-0.678,4.121c0,1.888,0.215,3.243,0.646,4.065c0.431,0.823,1.104,1.234,2.019,1.234
			c0.8,0,1.446-0.351,1.94-1.052s0.741-2.038,0.741-4.011c0-2.099-0.218-3.522-0.655-4.271
			C617.042,395.7,616.375,395.326,615.483,395.326z"/>
		<path fill="#FFFFFF" d="M630.647,408.551h-4.572v-15.979h4.318v2.975c0.664-2.215,1.814-3.322,3.449-3.322
			c0.231,0,0.517,0.016,0.854,0.047v4.651c-0.959,0-1.705,0.147-2.238,0.443c-0.532,0.295-0.967,0.825-1.305,1.59
			s-0.506,1.795-0.506,3.093V408.551z"/>
		<path fill="#FFFFFF" d="M651.671,401.353h-10.283c-0.011,0.285-0.016,0.532-0.016,0.743c0,1.14,0.303,1.999,0.909,2.579
			s1.332,0.87,2.176,0.87c1.571,0,2.516-0.839,2.832-2.516l4.271,0.316c-1.192,3.691-3.613,5.537-7.262,5.537
			c-1.593,0-2.945-0.319-4.059-0.957c-1.112-0.638-2.029-1.568-2.752-2.792s-1.084-2.689-1.084-4.398
			c0-2.541,0.725-4.593,2.176-6.154c1.449-1.561,3.314-2.341,5.592-2.341c2.057,0,3.82,0.725,5.292,2.175
			S651.671,398.178,651.671,401.353z M641.373,398.616h5.679c-0.147-2.193-1.049-3.29-2.705-3.29
			C642.575,395.326,641.583,396.422,641.373,398.616z"/>
		<path fill="#FFFFFF" d="M674.706,396.433l-3.433,0.917c-0.401-1.444-1.44-2.167-3.116-2.167c-1.582,0-2.373,0.48-2.373,1.442
			c0,0.381,0.145,0.685,0.434,0.911c0.291,0.228,1.047,0.42,2.271,0.576c1.824,0.241,3.174,0.52,4.05,0.836
			c0.875,0.316,1.568,0.849,2.08,1.598s0.768,1.672,0.768,2.769c0,1.646-0.625,2.984-1.875,4.019
			c-1.249,1.033-2.997,1.55-5.244,1.55c-4.071,0-6.503-1.576-7.294-4.73l3.972-0.585c0.327,1.435,1.508,2.151,3.544,2.151
			c0.78,0,1.439-0.14,1.977-0.42c0.539-0.28,0.808-0.658,0.808-1.134c0.001-0.74-0.595-1.179-1.787-1.314
			c-3.228-0.397-5.351-1.016-6.368-1.854c-1.018-0.838-1.527-2.006-1.527-3.504c0-1.519,0.591-2.773,1.772-3.765
			c1.181-0.991,2.837-1.487,4.968-1.487c1.688,0,3.037,0.332,4.05,0.996C673.393,393.902,674.168,394.967,674.706,396.433z"/>
		<path fill="#FFFFFF" d="M692.424,401.353h-10.283c-0.01,0.285-0.016,0.532-0.016,0.743c0,1.14,0.303,1.999,0.91,2.579
			c0.605,0.58,1.331,0.87,2.176,0.87c1.57,0,2.515-0.839,2.831-2.516l4.271,0.316c-1.192,3.691-3.612,5.537-7.261,5.537
			c-1.594,0-2.945-0.319-4.059-0.957s-2.03-1.568-2.753-2.792c-0.722-1.224-1.083-2.689-1.083-4.398
			c0-2.541,0.725-4.593,2.175-6.154c1.45-1.561,3.314-2.341,5.593-2.341c2.057,0,3.82,0.725,5.291,2.175
			C691.689,395.866,692.424,398.178,692.424,401.353z M682.125,398.616h5.68c-0.148-2.193-1.049-3.29-2.705-3.29
			C683.329,395.326,682.336,396.422,682.125,398.616z"/>
		<path fill="#FFFFFF" d="M699.971,408.551h-4.572v-15.979h4.318v2.975c0.665-2.215,1.814-3.322,3.449-3.322
			c0.232,0,0.518,0.016,0.854,0.047v4.651c-0.96,0-1.706,0.147-2.238,0.443c-0.532,0.295-0.968,0.825-1.306,1.59
			s-0.506,1.795-0.506,3.093V408.551z"/>
		<path fill="#FFFFFF" d="M719.905,392.573l-5.477,15.979h-3.666l-5.492-15.979h4.9l3.082,10.125l3.152-10.125H719.905z"/>
		<path fill="#FFFFFF" d="M726.66,386.513v4.715h-4.714v-4.715H726.66z M726.66,392.573v15.979h-4.714v-15.979H726.66z"/>
		<path fill="#FFFFFF" d="M744.584,402.555c-0.18,1.889-0.926,3.415-2.238,4.58c-1.313,1.166-3.01,1.748-5.087,1.748
			c-2.257,0-4.095-0.746-5.513-2.238c-1.42-1.492-2.129-3.488-2.129-5.988c0-2.499,0.726-4.527,2.176-6.083s3.389-2.333,5.814-2.333
			c1.951,0,3.566,0.585,4.849,1.756c1.281,1.171,1.99,2.637,2.128,4.398l-4.398,0.253c-0.148-1.92-0.98-2.88-2.5-2.88
			c-1.866,0-2.8,1.529-2.8,4.588c0,2.036,0.261,3.328,0.783,3.876c0.522,0.549,1.157,0.823,1.906,0.823
			c1.456,0,2.325-0.923,2.61-2.769L744.584,402.555z"/>
		<path fill="#FFFFFF" d="M751.83,386.513v4.715h-4.714v-4.715H751.83z M751.83,392.573v15.979h-4.714v-15.979H751.83z"/>
		<path fill="#FFFFFF" d="M769.596,408.551h-4.715v-8.97c0-1.087-0.042-1.83-0.127-2.231c-0.084-0.4-0.289-0.74-0.617-1.021
			c-0.326-0.279-0.738-0.419-1.233-0.419c-1.655,0-2.483,1.224-2.483,3.671v8.97h-4.715v-15.979h4.383v2.705
			c0.727-1.286,1.444-2.114,2.15-2.483c0.707-0.369,1.473-0.554,2.295-0.554c1.519,0,2.742,0.408,3.67,1.226
			s1.393,2.424,1.393,4.817V408.551z"/>
		<path fill="#FFFFFF" d="M789.45,392.937c-0.494-0.105-0.912-0.158-1.248-0.158c-1.045,0-1.656,0.464-1.836,1.392
			c0.854,0.896,1.281,1.909,1.281,3.038c0,1.508-0.631,2.71-1.891,3.606s-3.076,1.345-5.449,1.345c-0.844,0-1.668-0.079-2.469-0.239
			c-0.537,0.316-0.807,0.724-0.807,1.22c0,0.549,0.227,0.912,0.68,1.092s1.545,0.312,3.275,0.396c2.457,0.127,4.15,0.28,5.078,0.459
			c0.928,0.18,1.709,0.612,2.342,1.298s0.949,1.54,0.949,2.563c0,1.466-0.678,2.705-2.033,3.718s-3.758,1.519-7.207,1.519
			c-3.236,0-5.42-0.351-6.549-1.053s-1.693-1.592-1.693-2.669c0-1.426,0.912-2.387,2.738-2.883
			c-1.352-0.675-2.025-1.624-2.025-2.848c0-1.529,1.064-2.722,3.195-3.576c-1.889-0.779-2.832-2.081-2.832-3.903
			c0-1.486,0.652-2.692,1.955-3.62c1.301-0.927,3.102-1.391,5.402-1.391c1.455,0,2.863,0.231,4.223,0.696
			c0.096-0.907,0.361-1.653,0.799-2.239c0.438-0.585,1.369-0.878,2.793-0.878c0.465,0,0.906,0.042,1.328,0.127V392.937z
			 M777.127,408.441c-0.191,0-0.432,0.126-0.721,0.379c-0.291,0.254-0.436,0.56-0.436,0.918c0,0.717,0.459,1.165,1.377,1.345
			s1.994,0.269,3.227,0.269c1.615,0,2.746-0.121,3.395-0.363c0.648-0.243,0.973-0.633,0.973-1.171c0-0.411-0.271-0.728-0.814-0.949
			s-1.992-0.332-4.344-0.332l-0.949,0.016c-0.58,0-0.971-0.016-1.17-0.048C777.444,408.461,777.264,408.441,777.127,408.441z
			 M780.268,394.788c-0.811,0-1.445,0.219-1.902,0.656c-0.457,0.438-0.686,1.016-0.686,1.732c0,1.624,0.867,2.437,2.604,2.437
			c0.84,0,1.5-0.237,1.979-0.712s0.719-1.05,0.719-1.725c0-0.633-0.227-1.188-0.68-1.669
			C781.85,395.028,781.17,394.788,780.268,394.788z"/>
		<path fill="#FFFFFF" d="M796.079,408.551h-4.889v-4.889h4.889V408.551z"/>
	</g>
</g>
<g id="Symbols">
	<g id="svg3069">
		<path id="sign_border_1_" fill="#010101" d="M410.149,381.62L238.866,84.919c-1.751-3.018-4.95-4.829-8.39-4.829
			s-6.639,1.871-8.39,4.829L50.802,381.62c-1.75,3.019-1.75,6.699,0,9.656c1.75,3.02,4.949,4.828,8.389,4.828h342.57
			c3.44,0,6.64-1.87,8.39-4.828C411.9,388.258,411.9,384.577,410.149,381.62L410.149,381.62z"/>
		<polygon id="polygon7_1_" fill="#F5BD18" points="385.043,376.747 76.03,376.747 230.536,110.289 		"/>
		<path id="path1933" fill="#010101" stroke="#010101" stroke-width="0.6327" d="M224.793,181.854l-30.485,103.771l44.589-22.99
			l-9.541,69.846l-9.116-13.314l7.024,43.795l25.566-36.924l-12.948,8.049l26.881-98.969l-48.073,26.475l35.184-79.771
			L224.793,181.854L224.793,181.854z"/>
	</g>
</g>
</svg>
