<?xml version="1.0" encoding="utf-8"?>
<!-- Generator: Adobe Illustrator 16.0.3, SVG Export Plug-In . SVG Version: 6.00 Build 0)  -->
<!DOCTYPE svg PUBLIC "-//W3C//DTD SVG 1.1//EN" "http://www.w3.org/Graphics/SVG/1.1/DTD/svg11.dtd">
<svg version="1.1" id="Layer_1" xmlns="http://www.w3.org/2000/svg" xmlns:xlink="http://www.w3.org/1999/xlink" x="0px" y="0px"
	 width="865px" height="865px" viewBox="0 0 865 865" enable-background="new 0 0 865 865" xml:space="preserve">
<rect x="0.5" y="0.5" fill="#FFFFFF" stroke="#000000" stroke-miterlimit="10" width="864" height="864"/>
<rect x="0.5" y="0.5" fill="#B7202E" width="864" height="215.46"/>
<g>
	<g>
		<path d="M90,338.461v-81.358h16.89v31.02h31.627v-31.02h16.89v81.358h-16.89v-36.318H106.89v36.318H90z"/>
		<path d="M186.647,271.123h-15.952v-14.516h15.952V271.123z M170.695,278.298h15.952v60.163h-15.952V278.298z"/>
		<path d="M231.644,278.243c3.821,1.583,6.908,4.49,9.261,8.721v-8.666h15.344v57.072c0,7.764-1.307,13.614-3.919,17.552
			c-4.49,6.771-13.1,10.156-25.832,10.156c-7.691,0-13.964-1.509-18.821-4.526c-4.857-3.018-7.544-7.526-8.059-13.523h17.11
			c0.441,1.839,1.159,3.164,2.153,3.974c1.692,1.435,4.544,2.152,8.555,2.152c5.666,0,9.457-1.896,11.37-5.685
			c1.25-2.429,1.876-6.513,1.876-12.253v-3.864c-1.509,2.576-3.128,4.508-4.857,5.796c-3.128,2.392-7.194,3.587-12.198,3.587
			c-7.728,0-13.9-2.713-18.518-8.141c-4.618-5.427-6.927-12.778-6.927-22.051c0-8.941,2.223-16.457,6.67-22.547
			c4.447-6.089,10.749-9.135,18.908-9.135C226.774,276.863,229.401,277.324,231.644,278.243z M237.001,321.378
			c2.528-2.778,3.793-7.203,3.793-13.274c0-5.703-1.201-10.045-3.601-13.026c-2.4-2.981-5.615-4.471-9.645-4.471
			c-5.497,0-9.29,2.594-11.378,7.783c-1.1,2.76-1.649,6.164-1.649,10.211c0,3.497,0.586,6.605,1.759,9.328
			c2.125,5.078,5.936,7.617,11.433,7.617C231.376,325.545,234.472,324.157,237.001,321.378z"/>
		<path d="M314.168,278.631c3.022,1.29,5.505,3.26,7.447,5.911c1.648,2.248,2.655,4.559,3.022,6.934
			c0.366,2.375,0.55,6.251,0.55,11.628v35.357h-16.062v-36.636c0-3.242-0.548-5.858-1.644-7.847c-1.425-2.799-4.128-4.2-8.109-4.2
			c-4.127,0-7.26,1.391-9.397,4.172s-3.205,6.75-3.205,11.907v32.603h-15.731v-81.082h15.731v28.702
			c2.271-3.496,4.9-5.934,7.886-7.313c2.986-1.38,6.128-2.07,9.426-2.07C307.784,276.697,311.146,277.342,314.168,278.631z"/>
		<path d="M420.261,257.103h17.663l-27.737,81.358h-16.061l-27.515-81.358h18.16l17.662,61.764L420.261,257.103z"/>
		<path d="M488.621,331.101c-5.078,6.268-12.787,9.402-23.127,9.402c-10.342,0-18.049-3.134-23.127-9.402
			s-7.617-13.814-7.617-22.639c0-8.676,2.539-16.195,7.617-22.555s12.785-9.541,23.127-9.541c10.34,0,18.049,3.181,23.127,9.541
			s7.617,13.879,7.617,22.555C496.238,317.287,493.699,324.833,488.621,331.101z M476.035,322.407
			c2.465-3.27,3.699-7.918,3.699-13.944c0-6.026-1.234-10.665-3.699-13.916c-2.465-3.251-5.998-4.878-10.598-4.878
			s-8.141,1.626-10.625,4.878c-2.482,3.251-3.725,7.89-3.725,13.916c0,6.026,1.242,10.674,3.725,13.944
			c2.484,3.271,6.025,4.905,10.625,4.905S473.57,325.677,476.035,322.407z"/>
		<path d="M523.559,338.461h-15.73v-81.358h15.73V338.461z"/>
		<path d="M532.723,290.055V278.85h8.389v-16.779h15.566v16.779h9.77v11.205h-9.77v31.792c0,2.466,0.311,4.001,0.938,4.609
			c0.625,0.607,2.539,0.911,5.74,0.911c0.479,0,0.984-0.009,1.518-0.028c0.533-0.018,1.059-0.045,1.574-0.083v11.756l-7.453,0.276
			c-7.432,0.257-12.51-1.03-15.232-3.864c-1.768-1.803-2.65-4.582-2.65-8.334v-37.036H532.723z"/>
		<path d="M600.375,301.866c2.928-0.367,5.021-0.828,6.283-1.38c2.262-0.956,3.393-2.446,3.393-4.471
			c0-2.465-0.869-4.167-2.604-5.105s-4.279-1.407-7.637-1.407c-3.766,0-6.434,0.92-8,2.76c-1.119,1.361-1.865,3.201-2.238,5.52
			h-15.178c0.332-5.262,1.811-9.585,4.434-12.971c4.176-5.299,11.346-7.948,21.51-7.948c6.615,0,12.49,1.307,17.627,3.919
			c5.137,2.613,7.705,7.544,7.705,14.792v27.598c0,1.914,0.037,4.232,0.111,6.955c0.109,2.061,0.422,3.459,0.938,4.195
			c0.516,0.736,1.287,1.344,2.318,1.821v2.318h-17.111c-0.479-1.214-0.809-2.354-0.992-3.422c-0.186-1.067-0.332-2.281-0.441-3.643
			c-2.184,2.355-4.701,4.36-7.551,6.016c-3.404,1.95-7.256,2.925-11.549,2.925c-5.477,0-10.002-1.555-13.572-4.664
			c-3.572-3.109-5.357-7.515-5.357-13.219c0-7.396,2.871-12.75,8.617-16.062c3.152-1.803,7.785-3.091,13.902-3.864L600.375,301.866z
			 M609.994,309.208c-1.008,0.626-2.023,1.131-3.049,1.518c-1.027,0.387-2.436,0.745-4.225,1.077l-3.582,0.662
			c-3.355,0.589-5.766,1.307-7.23,2.153c-2.477,1.435-3.715,3.662-3.715,6.679c0,2.686,0.756,4.627,2.27,5.823
			c1.512,1.196,3.354,1.794,5.52,1.794c3.438,0,6.604-0.994,9.5-2.98c2.896-1.987,4.4-5.611,4.512-10.874V309.208z"/>
		<path d="M669.178,278.243c3.82,1.583,6.908,4.49,9.26,8.721v-8.666h15.344v57.072c0,7.764-1.307,13.614-3.918,17.552
			c-4.49,6.771-13.1,10.156-25.832,10.156c-7.691,0-13.963-1.509-18.82-4.526c-4.857-3.018-7.545-7.526-8.059-13.523h17.109
			c0.441,1.839,1.16,3.164,2.152,3.974c1.693,1.435,4.545,2.152,8.557,2.152c5.666,0,9.455-1.896,11.369-5.685
			c1.252-2.429,1.877-6.513,1.877-12.253v-3.864c-1.51,2.576-3.127,4.508-4.857,5.796c-3.127,2.392-7.193,3.587-12.197,3.587
			c-7.729,0-13.9-2.713-18.518-8.141c-4.619-5.427-6.928-12.778-6.928-22.051c0-8.941,2.223-16.457,6.67-22.547
			c4.447-6.089,10.75-9.135,18.908-9.135C664.309,276.863,666.936,277.324,669.178,278.243z M674.535,321.378
			c2.527-2.778,3.793-7.203,3.793-13.274c0-5.703-1.201-10.045-3.602-13.026c-2.4-2.981-5.615-4.471-9.645-4.471
			c-5.498,0-9.289,2.594-11.379,7.783c-1.1,2.76-1.648,6.164-1.648,10.211c0,3.497,0.586,6.605,1.758,9.328
			c2.125,5.078,5.936,7.617,11.434,7.617C668.91,325.545,672.006,324.157,674.535,321.378z"/>
		<path d="M747.668,279.517c4.197,1.88,7.662,4.847,10.396,8.9c2.463,3.575,4.063,7.72,4.793,12.438
			c0.424,2.764,0.596,6.744,0.518,11.94h-43.816c0.244,6.036,2.34,10.267,6.291,12.695c2.402,1.509,5.293,2.263,8.674,2.263
			c3.582,0,6.494-0.919,8.734-2.76c1.221-0.993,2.301-2.373,3.236-4.14h16.061c-0.424,3.57-2.367,7.194-5.832,10.874
			c-5.389,5.851-12.934,8.776-22.635,8.776c-8.006,0-15.07-2.467-21.191-7.402c-6.119-4.935-9.18-12.964-9.18-24.087
			c0-10.421,2.762-18.414,8.287-23.975s12.697-8.342,21.516-8.342C738.754,276.697,743.471,277.637,747.668,279.517z
			 M724.135,293.106c-2.223,2.292-3.619,5.396-4.191,9.313h27.102c-0.287-4.176-1.682-7.345-4.189-9.506
			c-2.51-2.162-5.619-3.244-9.33-3.244C729.486,289.668,726.357,290.814,724.135,293.106z"/>
	</g>
</g>
<g>
	<g>
		<path d="M113.375,378.604h19.235l28.784,81.358H142.96l-5.369-16.724h-29.96l-5.516,16.724H84.333L113.375,378.604z
			 M112.255,429.218h20.836l-10.278-32.013L112.255,429.218z"/>
		<path d="M186.15,399.798v36.264c0,3.422,0.403,5.998,1.208,7.727c1.428,3.055,4.229,4.582,8.403,4.582
			c5.345,0,9.007-2.171,10.985-6.514c1.024-2.354,1.538-5.464,1.538-9.328v-32.731h15.951v60.163h-15.289v-8.5
			c-0.146,0.185-0.514,0.736-1.101,1.655c-0.587,0.921-1.284,1.73-2.091,2.43c-2.458,2.207-4.834,3.717-7.128,4.525
			c-2.294,0.809-4.981,1.215-8.063,1.215c-8.879,0-14.86-3.201-17.943-9.604c-1.725-3.532-2.586-8.739-2.586-15.62v-36.264H186.15z"
			/>
		<path d="M233.342,411.555v-11.205h8.39v-16.779h15.565v16.779h9.77v11.205h-9.77v31.792c0,2.467,0.313,4.002,0.938,4.609
			c0.625,0.607,2.539,0.91,5.74,0.91c0.478,0,0.984-0.008,1.518-0.027c0.533-0.018,1.057-0.045,1.573-0.082v11.756l-7.451,0.276
			c-7.433,0.257-12.511-1.03-15.234-3.864c-1.766-1.803-2.649-4.581-2.649-8.334v-37.036H233.342z"/>
		<path d="M320.405,400.131c3.022,1.29,5.505,3.26,7.447,5.911c1.648,2.248,2.655,4.559,3.022,6.934
			c0.366,2.375,0.55,6.251,0.55,11.628v35.357h-16.062v-36.636c0-3.242-0.548-5.858-1.644-7.847c-1.425-2.799-4.128-4.2-8.109-4.2
			c-4.127,0-7.26,1.391-9.397,4.172s-3.205,6.75-3.205,11.907v32.603h-15.731v-81.082h15.731v28.702
			c2.271-3.496,4.9-5.934,7.886-7.313c2.986-1.38,6.128-2.07,9.426-2.07C314.021,398.198,317.382,398.843,320.405,400.131z"/>
		<path d="M396.389,452.601c-5.078,6.269-12.787,9.402-23.127,9.402c-10.34,0-18.049-3.134-23.127-9.402
			c-5.078-6.268-7.617-13.814-7.617-22.638c0-8.676,2.539-16.195,7.617-22.555s12.787-9.541,23.127-9.541
			c10.34,0,18.049,3.181,23.127,9.541s7.617,13.879,7.617,22.555C404.006,438.787,401.467,446.333,396.389,452.601z
			 M383.804,443.908c2.465-3.271,3.698-7.918,3.698-13.945c0-6.026-1.233-10.665-3.698-13.916
			c-2.466-3.251-5.998-4.878-10.598-4.878s-8.141,1.626-10.625,4.878c-2.484,3.251-3.726,7.89-3.726,13.916
			c0,6.027,1.242,10.674,3.726,13.945c2.483,3.27,6.025,4.904,10.625,4.904S381.338,447.177,383.804,443.908z"/>
		<path d="M448.688,398.391c0.201,0.019,0.652,0.046,1.352,0.083v16.117c-0.994-0.11-1.877-0.184-2.648-0.221
			c-0.773-0.036-1.4-0.055-1.877-0.055c-6.33,0-10.58,2.061-12.75,6.182c-1.214,2.318-1.821,5.888-1.821,10.708v28.757h-15.841
			v-60.163h15.013v10.487c2.429-4.01,4.544-6.752,6.347-8.224c2.943-2.465,6.77-3.698,11.48-3.698
			C448.236,398.363,448.484,398.373,448.688,398.391z"/>
		<path d="M475.43,392.623h-15.953v-14.516h15.953V392.623z M459.477,399.798h15.953v60.163h-15.953V399.798z"/>
		<path d="M487.24,412.604v-12.806h47.578v13.082l-29.52,34.167h30.568v12.915h-50.725v-12.253l29.824-35.104H487.24z"/>
		<path d="M586.387,401.017c4.197,1.88,7.664,4.847,10.396,8.9c2.465,3.575,4.063,7.72,4.795,12.438
			c0.422,2.764,0.596,6.744,0.518,11.94h-43.818c0.244,6.036,2.342,10.267,6.291,12.695c2.402,1.509,5.295,2.263,8.674,2.263
			c3.584,0,6.494-0.92,8.734-2.76c1.221-0.993,2.301-2.373,3.238-4.14h16.061c-0.424,3.569-2.367,7.194-5.832,10.874
			c-5.391,5.85-12.934,8.775-22.635,8.775c-8.006,0-15.07-2.467-21.191-7.402c-6.121-4.935-9.182-12.964-9.182-24.086
			c0-10.421,2.764-18.414,8.289-23.975s12.697-8.342,21.514-8.342C577.475,398.198,582.191,399.138,586.387,401.017z
			 M562.854,414.606c-2.223,2.292-3.619,5.396-4.189,9.313h27.102c-0.287-4.176-1.684-7.345-4.191-9.506
			c-2.508-2.162-5.617-3.244-9.33-3.244C568.207,411.169,565.076,412.315,562.854,414.606z"/>
		<path d="M641.953,400.765c2.834,1.601,5.133,3.818,6.9,6.651v-28.702h15.951v81.248h-15.289v-8.335
			c-2.246,3.57-4.803,6.164-7.672,7.783c-2.871,1.619-6.441,2.428-10.709,2.428c-7.029,0-12.943-2.842-17.744-8.527
			c-4.803-5.685-7.203-12.979-7.203-21.885c0-10.266,2.363-18.343,7.092-24.23c4.729-5.887,11.047-8.832,18.959-8.832
			C635.883,398.363,639.119,399.164,641.953,400.765z M645.816,443.624c2.318-3.312,3.479-7.599,3.479-12.86
			c0-7.359-1.859-12.621-5.576-15.786c-2.281-1.913-4.93-2.87-7.947-2.87c-4.6,0-7.977,1.739-10.129,5.216
			c-2.152,3.477-3.229,7.792-3.229,12.943c0,5.557,1.094,10,3.285,13.33c2.188,3.331,5.51,4.995,9.961,4.995
			C640.113,448.591,643.498,446.935,645.816,443.624z"/>
	</g>
</g>
<g>
	<g>
		<path d="M144.979,546.247c-4.762,3.974-11.563,5.962-20.403,5.962h-16.939v29.253h-16.89v-81.358h34.932
			c8.054,0,14.474,2.098,19.263,6.293c4.788,4.195,7.182,10.689,7.182,19.484C152.124,535.484,149.742,542.273,144.979,546.247z
			 M132.004,516.938c-2.152-1.802-5.168-2.704-9.048-2.704h-15.32v23.955h15.32c3.879,0,6.896-0.975,9.048-2.926
			c2.153-1.95,3.23-5.041,3.23-9.273C135.234,521.759,134.157,518.742,132.004,516.938z"/>
		<path d="M203.692,522.517c4.196,1.881,7.663,4.847,10.396,8.9c2.464,3.574,4.062,7.721,4.793,12.438
			c0.424,2.765,0.596,6.744,0.519,11.94h-43.818c0.244,6.036,2.342,10.267,6.292,12.695c2.403,1.509,5.293,2.263,8.673,2.263
			c3.583,0,6.495-0.92,8.735-2.76c1.221-0.993,2.301-2.373,3.237-4.14h16.061c-0.424,3.569-2.368,7.194-5.832,10.874
			c-5.389,5.85-12.934,8.775-22.634,8.775c-8.007,0-15.071-2.467-21.191-7.402c-6.121-4.935-9.181-12.964-9.181-24.086
			c0-10.422,2.762-18.414,8.288-23.975c5.524-5.562,12.696-8.343,21.514-8.343C194.779,519.698,199.496,520.638,203.692,522.517z
			 M180.159,536.107c-2.224,2.291-3.62,5.395-4.19,9.313h27.101c-0.286-4.176-1.683-7.346-4.19-9.507
			c-2.508-2.162-5.618-3.243-9.33-3.243C185.511,532.669,182.381,533.815,180.159,536.107z"/>
		<path d="M260.776,519.891c0.202,0.019,0.653,0.046,1.353,0.083v16.117c-0.994-0.111-1.877-0.184-2.649-0.221
			c-0.773-0.037-1.399-0.056-1.877-0.056c-6.329,0-10.579,2.062-12.75,6.182c-1.214,2.318-1.821,5.888-1.821,10.708v28.757h-15.841
			v-60.163h15.013v10.487c2.429-4.011,4.544-6.752,6.348-8.224c2.943-2.465,6.77-3.699,11.48-3.699
			C260.325,519.863,260.573,519.873,260.776,519.891z"/>
		<path d="M283.544,562.253c0.333,2.797,1.054,4.783,2.163,5.961c1.959,2.098,5.583,3.146,10.87,3.146
			c3.105,0,5.574-0.46,7.404-1.38c1.83-0.919,2.745-2.3,2.745-4.14c0-1.767-0.737-3.109-2.211-4.029
			c-1.475-0.92-6.96-2.502-16.457-4.747c-6.836-1.692-11.653-3.808-14.449-6.347c-2.797-2.502-4.195-6.108-4.195-10.818
			c0-5.557,2.185-10.33,6.554-14.324c4.37-3.992,10.519-5.988,18.448-5.988c7.522,0,13.653,1.5,18.391,4.498
			c4.738,3,7.458,8.179,8.159,15.538h-15.73c-0.222-2.023-0.793-3.624-1.715-4.802c-1.735-2.134-4.688-3.201-8.856-3.201
			c-3.432,0-5.875,0.533-7.333,1.6c-1.458,1.068-2.187,2.318-2.187,3.754c0,1.803,0.774,3.109,2.325,3.919
			c1.549,0.847,7.023,2.3,16.424,4.36c6.266,1.473,10.964,3.697,14.092,6.679c3.091,3.018,4.636,6.789,4.636,11.315
			c0,5.961-2.221,10.827-6.665,14.599s-11.31,5.657-20.601,5.657c-9.476,0-16.472-1.996-20.989-5.988
			c-4.517-3.992-6.775-9.08-6.775-15.262H283.544z"/>
		<path d="M384.386,574.101c-5.078,6.269-12.788,9.402-23.127,9.402c-10.34,0-18.049-3.134-23.127-9.402
			c-5.078-6.268-7.617-13.814-7.617-22.639c0-8.676,2.539-16.194,7.617-22.555s12.787-9.541,23.127-9.541
			c10.339,0,18.049,3.181,23.127,9.541s7.617,13.879,7.617,22.555C392.003,560.287,389.464,567.833,384.386,574.101z
			 M371.802,565.408c2.464-3.271,3.698-7.918,3.698-13.945c0-6.025-1.233-10.664-3.698-13.916
			c-2.466-3.251-5.999-4.877-10.598-4.877c-4.6,0-8.142,1.626-10.625,4.877c-2.484,3.252-3.726,7.891-3.726,13.916
			c0,6.027,1.242,10.675,3.726,13.945c2.483,3.27,6.025,4.904,10.625,4.904C365.803,570.312,369.336,568.677,371.802,565.408z"/>
		<path d="M451.777,524.748c3.938,3.258,5.908,8.658,5.908,16.201v40.513h-16.117v-36.595c0-3.164-0.42-5.593-1.26-7.285
			c-1.535-3.092-4.457-4.637-8.767-4.637c-5.297,0-8.932,2.263-10.904,6.789c-1.022,2.393-1.534,5.446-1.534,9.162v32.565h-15.73
			v-60.053h15.234v8.776c2.015-3.091,3.92-5.316,5.716-6.679c3.224-2.429,7.31-3.644,12.257-3.644
			C442.771,519.863,447.836,521.492,451.777,524.748z"/>
		<path d="M511.516,522.517c4.197,1.881,7.664,4.847,10.396,8.9c2.465,3.574,4.063,7.721,4.795,12.438
			c0.422,2.765,0.596,6.744,0.518,11.94h-43.818c0.244,6.036,2.342,10.267,6.291,12.695c2.402,1.509,5.295,2.263,8.674,2.263
			c3.584,0,6.494-0.92,8.734-2.76c1.221-0.993,2.301-2.373,3.238-4.14h16.061c-0.424,3.569-2.367,7.194-5.832,10.874
			c-5.391,5.85-12.934,8.775-22.635,8.775c-8.006,0-15.07-2.467-21.191-7.402c-6.121-4.935-9.182-12.964-9.182-24.086
			c0-10.422,2.764-18.414,8.289-23.975c5.525-5.562,12.697-8.343,21.514-8.343C502.604,519.698,507.32,520.638,511.516,522.517z
			 M487.982,536.107c-2.223,2.291-3.619,5.395-4.189,9.313h27.102c-0.287-4.176-1.684-7.346-4.191-9.507
			c-2.508-2.162-5.617-3.243-9.33-3.243C493.336,532.669,490.205,533.815,487.982,536.107z"/>
		<path d="M551.24,581.461h-15.73v-81.358h15.73V581.461z"/>
	</g>
</g>
<g>
	<g>
		<path d="M153.007,695.73c-6.146,6.33-15.032,9.494-26.66,9.494c-11.628,0-20.514-3.164-26.659-9.494
			c-8.243-7.764-12.364-18.949-12.364-33.559c0-14.902,4.121-26.088,12.364-33.559c6.145-6.328,15.031-9.494,26.659-9.494
			c11.627,0,20.514,3.166,26.66,9.494c8.205,7.471,12.309,18.656,12.309,33.559C165.316,676.781,161.212,687.966,153.007,695.73z
			 M142.382,683.367c3.955-4.968,5.934-12.033,5.934-21.195c0-9.125-1.979-16.181-5.934-21.167c-3.956-4.985-9.3-7.479-16.034-7.479
			s-12.106,2.484-16.117,7.451c-4.011,4.969-6.017,12.033-6.017,21.195s2.005,16.228,6.017,21.195
			c4.01,4.967,9.383,7.451,16.117,7.451S138.426,688.333,142.382,683.367z"/>
		<path d="M225.531,646.248c3.939,3.257,5.909,8.657,5.909,16.2v40.513h-16.117v-36.594c0-3.164-0.42-5.594-1.26-7.286
			c-1.535-3.091-4.457-4.636-8.767-4.636c-5.297,0-8.932,2.262-10.904,6.789c-1.023,2.392-1.534,5.445-1.534,9.162v32.564h-15.731
			v-60.053h15.234v8.777c2.015-3.092,3.921-5.317,5.716-6.68c3.224-2.428,7.31-3.643,12.257-3.643
			C216.527,641.363,221.592,642.992,225.531,646.248z"/>
		<path d="M262.128,702.96h-15.73v-81.357h15.73V702.96z"/>
		<path d="M279.846,714.497l1.987,0.11c1.546,0.074,3.017,0.019,4.416-0.166c1.398-0.184,2.575-0.606,3.532-1.27
			c0.919-0.625,1.775-1.932,2.567-3.918c0.791-1.987,1.131-3.201,1.022-3.643l-22.107-62.813h17.497l13.137,44.377l12.419-44.377
			h16.724l-20.626,59.169c-3.986,11.407-7.139,18.481-9.46,21.223s-6.962,4.112-13.925,4.112c-1.399,0-2.523-0.01-3.37-0.027
			c-0.848-0.02-2.119-0.083-3.813-0.193V714.497z"/>
	</g>
</g>
<g>
	<path fill="#FFFFFF" d="M165.744,43.366c8.543,2.809,15.461,7.959,20.754,15.449c4.244,6.06,7.137,12.613,8.681,19.663
		c1.544,7.051,2.316,13.77,2.316,20.158c0,16.193-3.253,29.908-9.757,41.144c-8.819,15.147-22.434,22.72-40.845,22.72H94.388V40.722
		h52.504C154.444,40.833,160.728,41.714,165.744,43.366z M119.091,61.872v79.478h23.5c12.026,0,20.411-5.92,25.155-17.763
		c2.592-6.499,3.889-14.237,3.889-23.215c0-12.393-1.945-21.907-5.833-28.544c-3.89-6.637-11.626-9.956-23.21-9.956H119.091z"/>
	<path fill="#FFFFFF" d="M250.347,107.725c4.383-0.55,7.516-1.239,9.404-2.065c3.385-1.432,5.076-3.662,5.076-6.692
		c0-3.689-1.299-6.237-3.895-7.642c-2.596-1.404-6.406-2.106-11.43-2.106c-5.639,0-9.633,1.377-11.977,4.131
		c-1.676,2.038-2.793,4.792-3.35,8.262h-22.721c0.498-7.876,2.711-14.347,6.639-19.415c6.25-7.932,16.982-11.897,32.195-11.897
		c9.9,0,18.695,1.956,26.385,5.866c7.689,3.912,11.533,11.292,11.533,22.142v41.309c0,2.864,0.055,6.334,0.166,10.41
		c0.164,3.085,0.633,5.178,1.404,6.279c0.77,1.103,1.928,2.011,3.469,2.727v3.47h-25.611c-0.715-1.817-1.211-3.524-1.486-5.122
		c-0.275-1.597-0.496-3.415-0.66-5.453c-3.27,3.525-7.037,6.527-11.303,9.005c-5.096,2.919-10.859,4.379-17.285,4.379
		c-8.199,0-14.971-2.328-20.316-6.981c-5.348-4.653-8.02-11.249-8.02-19.787c0-11.071,4.301-19.084,12.9-24.042
		c4.717-2.698,11.652-4.626,20.807-5.783L250.347,107.725z M264.743,118.713c-1.508,0.937-3.029,1.694-4.564,2.272
		s-3.643,1.115-6.322,1.611l-5.359,0.992c-5.025,0.881-8.633,1.956-10.824,3.222c-3.707,2.148-5.563,5.481-5.563,9.997
		c0,4.021,1.133,6.927,3.398,8.716c2.264,1.791,5.02,2.685,8.264,2.685c5.145,0,9.883-1.487,14.219-4.461
		c4.334-2.975,6.584-8.399,6.752-16.276V118.713z"/>
	<path fill="#FFFFFF" d="M381.396,77.611c5.896,4.875,8.844,12.958,8.844,24.248V162.5h-24.124v-54.775
		c0-4.736-0.629-8.371-1.886-10.905c-2.298-4.626-6.672-6.94-13.122-6.94c-7.929,0-13.368,3.387-16.32,10.162
		c-1.531,3.581-2.297,8.152-2.297,13.714V162.5h-23.546V72.612h22.803v13.136c3.015-4.626,5.868-7.958,8.556-9.997
		c4.825-3.635,10.941-5.453,18.346-5.453C367.919,70.299,375.5,72.736,381.396,77.611z"/>
	<path fill="#FFFFFF" d="M456.683,72.365c5.72,2.369,10.34,6.72,13.861,13.053V72.447h22.968v85.426
		c0,11.621-1.956,20.378-5.866,26.272c-6.72,10.134-19.608,15.202-38.665,15.202c-11.512,0-20.901-2.259-28.172-6.774
		c-7.271-4.517-11.292-11.265-12.063-20.241h25.611c0.661,2.753,1.735,4.736,3.223,5.948c2.532,2.148,6.802,3.222,12.806,3.222
		c8.48,0,14.154-2.837,17.019-8.51c1.872-3.635,2.81-9.749,2.81-18.341v-5.783c-2.26,3.856-4.683,6.748-7.271,8.675
		c-4.683,3.581-10.769,5.37-18.259,5.37c-11.566,0-20.807-4.061-27.718-12.186c-6.913-8.124-10.368-19.126-10.368-33.005
		c0-13.384,3.327-24.633,9.983-33.75c6.656-9.115,16.09-13.673,28.302-13.673C449.394,70.299,453.326,70.989,456.683,72.365z
		 M464.701,136.93c3.785-4.158,5.678-10.782,5.678-19.87c0-8.537-1.797-15.036-5.39-19.498s-8.405-6.692-14.438-6.692
		c-8.229,0-13.904,3.883-17.03,11.649c-1.646,4.131-2.469,9.226-2.469,15.284c0,5.233,0.877,9.887,2.633,13.962
		c3.181,7.601,8.885,11.401,17.113,11.401C456.282,143.167,460.916,141.089,464.701,136.93z"/>
	<path fill="#FFFFFF" d="M574.17,74.271c6.281,2.814,11.469,7.255,15.562,13.322c3.688,5.351,6.08,11.556,7.175,18.617
		c0.634,4.137,0.892,10.095,0.775,17.873h-65.588c0.365,9.034,3.505,15.367,9.417,19.002c3.597,2.259,7.924,3.387,12.983,3.387
		c5.363,0,9.722-1.376,13.074-4.131c1.827-1.487,3.443-3.552,4.846-6.196h24.039c-0.634,5.343-3.544,10.769-8.729,16.276
		c-8.066,8.757-19.359,13.136-33.879,13.136c-11.985,0-22.559-3.693-31.72-11.08c-9.162-7.386-13.742-19.405-13.742-36.053
		c0-15.599,4.135-27.562,12.405-35.886c8.27-8.324,19.005-12.487,32.203-12.487C560.828,70.051,567.888,71.458,574.17,74.271z
		 M538.945,94.612c-3.328,3.43-5.418,8.076-6.272,13.939h40.564c-0.429-6.25-2.519-10.993-6.272-14.229s-8.408-4.855-13.965-4.855
		C546.956,89.466,542.271,91.182,538.945,94.612z"/>
	<path fill="#FFFFFF" d="M659.613,70.34c0.302,0.029,0.978,0.07,2.024,0.124v24.125c-1.487-0.166-2.81-0.275-3.966-0.331
		c-1.156-0.054-2.094-0.083-2.809-0.083c-9.475,0-15.836,3.085-19.085,9.253c-1.817,3.47-2.727,8.813-2.727,16.028V162.5h-23.711
		V72.447h22.472v15.697c3.636-6.002,6.802-10.106,9.501-12.31c4.406-3.689,10.134-5.535,17.185-5.535
		C658.938,70.299,659.31,70.313,659.613,70.34z"/>
</g>
<g>
</g>
<g>
</g>
<g>
</g>
<g>
</g>
<g>
</g>
<g>
</g>
</svg>
